<?xml version="1.0" standalone="no"?>
<!DOCTYPE svg PUBLIC "-//W3C//DTD SVG 1.1//EN" "http://www.w3.org/Graphics/SVG/1.1/DTD/svg11.dtd" >
<svg xmlns="http://www.w3.org/2000/svg">
<metadata>Generated by IcoMoon</metadata>
<defs>
<font id="JSN-Mini-Icon" horiz-adv-x="512">
<font-face units-per-em="512" ascent="480" descent="-32" />
<missing-glyph horiz-adv-x="512" />
<glyph unicode="&#x20;" d="" horiz-adv-x="256" />
<glyph unicode="&#xe600;" d="M481.558 4.31c-1.728 1.792-87.786 91.072-113.259 117.483 25.046 32.32 40.235 72.746 40.235 117.142 0 107.094-87.466 192-192 192s-192-84.906-192-192 87.466-192 192-192c45.632 0 88 16.192 121.259 43.306 23.424-24.384 109.738-114.304 111.36-115.947 2.262-2.283 20.075-12.715 32.171-0.448 12.544 13.12 2.304 28.373 0.235 30.464zM216.534 89.6c-81.322 0-149.333 66.048-149.333 149.333s68.011 149.333 149.333 149.333 149.333-66.048 149.333-149.333-68.010-149.333-149.333-149.333zM259.2 260.267h-85.334c0 0-21.334 0.875-21.334-21.334s21.334-21.334 21.334-21.334h85.334c0 0 21.334-1.28 21.334 21.334 0 22.592-21.334 21.334-21.334 21.334z" />
<glyph unicode="&#xe601;" d="M481.558 4.31c-1.728 1.792-87.786 91.072-113.259 117.483 25.046 32.32 40.235 72.746 40.235 117.142 0 107.094-87.466 192-192 192s-192-84.906-192-192 87.466-192 192-192c45.632 0 87.978 16.192 121.259 43.306 23.424-24.406 109.738-114.304 111.36-115.947 2.262-2.283 20.075-12.715 32.171-0.448 12.544 13.12 2.304 28.373 0.235 30.464zM216.534 89.6c-81.322 0-149.333 66.048-149.333 149.333s68.011 149.333 149.333 149.333 149.333-66.048 149.333-149.333-68.010-149.333-149.333-149.333zM280.534 260.267h-42.666v42.666c0 0-0.278 21.334-21.334 21.334s-21.334-21.334-21.334-21.334v-42.666h-42.666c0 0-21.334 0.875-21.334-21.334s21.334-21.334 21.334-21.334h42.666v-42.666c0 0-0.214-21.334 21.334-21.334s21.334 21.334 21.334 21.334v42.666h42.666c0 0 21.334-1.28 21.334 21.334 0 22.592-21.334 21.334-21.334 21.334z" />
<glyph unicode="&#xe602;" d="M181.333 149.334c0 3.648 0.554 7.147 1.066 10.666h-21.334c-0.405-3.541-1.066-7.019-1.066-10.666 0-53.014 42.987-96 96-96 3.648 0 7.104 0.683 10.667 1.088v21.334c-3.52-0.534-7.019-1.088-10.666-1.088-41.238 0-74.666 33.408-74.666 74.666zM425.622 160c6.592 5.418 11.712 12.8 11.712 21.334 0 30.038-128 256-128 256s-29.504 42.666-42.666 42.666c-14.166 0-42.666-42.666-42.666-42.666s-149.333-212.267-149.333-256c0-9.259 4.694-16.32 10.773-21.334h-10.24c-0.192-3.541-0.534-7.062-0.534-10.666 0-100.138 81.195-181.334 181.333-181.334s181.334 81.195 181.334 181.333c0 3.606-0.341 7.125-0.534 10.666h-11.178zM394.666 149.334c0-76.587-62.080-138.666-138.667-138.666s-138.667 62.080-138.667 138.667c0 3.606 0.278 7.125 0.534 10.666h-0.534c0 6.507 19.178 43.008 42.666 85.334 34.56 62.272 78.549 137.344 85.334 149.333 12.544 22.123 28.822 23.19 42.666 0 11.606-19.434 106.666-217.237 106.666-234.666h-0.534c0.256-3.541 0.534-7.062 0.534-10.666z" />
<glyph unicode="&#xe603;" d="M362.666 357.099v80.234c0 20.203-22.954 42.667-42.666 42.667h-128c-22.762 0-42.666-21.738-42.666-42.667v-80.234c-38.976-31.274-64-79.232-64-133.099 0-53.846 25.024-101.824 64-133.099v-80.234c0-20.928 19.904-42.666 42.666-42.666h128c19.712 0 42.666 22.464 42.666 42.666v80.235c38.976 31.274 64 79.254 64 133.099 0 53.867-25.024 101.824-64 133.099zM192 416c0 18.966 2.838 21.334 21.334 21.334h85.334c18.219 0 21.334-3.52 21.334-21.334v-33.856c-19.776 8.022-41.344 12.523-64 12.523s-44.224-4.502-64-12.523v33.856zM320 32c0-17.813-3.115-21.334-21.334-21.334h-85.334c-18.496 0-21.334 2.368-21.334 21.334v33.856c19.776-8.022 41.344-12.522 64-12.522s44.224 4.502 64 12.522v-33.856zM256 96c-70.678 0-128 57.322-128 128s57.322 128 128 128 128-57.322 128-128-57.322-128-128-128zM298.666 245.333h-21.334v42.667c0 0-1.28 21.334-21.334 21.334s-21.334-21.334-21.334-21.334 0-53.547 0-64 6.549-21.334 21.334-21.334 42.666 0 42.666 0 21.334 2.219 21.334 21.334-21.334 21.334-21.334 21.334z" />
<glyph unicode="&#xe604;" d="M256 267.712c35.349 0 64 28.65 64 64s-28.651 64-64 64-64-28.65-64-64c0-35.35 28.65-64 64-64zM256 363.712c17.664 0 32-14.336 32-32s-14.336-32-32-32-32 14.336-32 32 14.336 32 32 32zM128 161.067h-21.334c0 0-21.334-2.496-21.334-21.334s21.334-21.334 21.334-21.334h21.334c0 0 21.334 2.432 21.334 21.334 0 18.88-21.334 21.334-21.334 21.334zM106.666 267.712c35.349 0 64 28.672 64 64 0 35.35-28.65 64-64 64s-64-28.65-64-64c0-35.328 28.65-64 64-64zM106.666 363.712c17.664 0 32-14.336 32-32s-14.336-32-32-32-32 14.336-32 32 14.336 32 32 32zM469.334 246.379c-26.709-13.674-79.061-39.722-107.84-53.994-5.546 28.373-33.365 53.995-62.827 53.995h-234.667c-32.342 0-64-31.914-64-64v-149.333c0-31.574 32.256-64 64-64h234.667c28.118 0 57.046 24.896 62.784 53.824 33.259-16.768 97.216-48.981 107.882-53.803 2.582-1.323 42.666-8.299 42.666 42.666v192c0 51.413-33.43 46.059-42.666 42.645zM320 54.4c0-32.384-11.050-42.666-42.666-42.666h-192c-31.51 0-42.666 10.986-42.666 42.666v106.666c0 30.678 10.282 42.666 42.666 42.666h192c31.040 0 42.666-12.714 42.666-42.666v-106.666zM469.334 11.733l-106.666 53.334v85.334l106.666 53.334v-192z" />
<glyph unicode="&#xe605;" d="M341.397 184.96c39.104 26.048 63.659 70.57 63.659 124.394 0 86.699-63.637 149.334-149.333 149.334s-149.333-62.635-149.333-149.334c0-53.93 24.64-98.517 63.894-124.544-81.814-31.637-141.142-107.349-147.862-199.168-1.344-10.731 7.445-17.622 18.112-17.622s23.21 0 23.21 0h384c27.584-0.064 17.536 0.022 24.789 0 7.274 0 17.877 5.589 17.173 17.707-6.784 91.947-66.304 167.702-148.31 199.232zM149.056 309.355c0 65.024 42.389 106.666 106.667 106.666s106.666-41.642 106.666-106.666c0-65.046-42.389-106.667-106.666-106.667s-106.666 41.621-106.666 106.666zM69.781 10.688c23.189 85.995 110.442 148.8 185.963 149.333 74.794 0.512 163.648-61.952 186.368-149.333h-372.33z" />
<glyph unicode="&#xe606;" d="M469.334 96c0 0 0-12.459 0-42.666s-9.962-42.666-42.666-42.666h-341.334c-32.896 0-42.666 11.029-42.666 42.666s0 42.666 0 42.666h-42.666c0 0 0-32.149 0-64s32.874-64 64-64h384c31.829 0 64 30.336 64 64s0 64 0 64h-42.666zM192 330.667c1.558 1.558 42.666 42.666 42.666 42.666v-277.334c0 0 0.171-21.334 20.992-21.334 20.949 0 21.674 21.334 21.674 21.334v277.334c0 0 40.918-40.917 42.666-42.666s18.282-11.947 31.253 0.704c13.781 13.397 3.286 28.651 1.216 30.742-2.112 2.090-53.803 53.888-53.803 53.888s-20.182 21.334-43.114 21.334c-22.934 0-42.219-21.334-42.219-21.334s-51.114-51.243-52.587-52.714c-1.472-1.472-11.989-18.496 0-31.915 12.394-13.867 29.696-2.262 31.254-0.704z" />
<glyph unicode="&#xe607;" d="M426.666 309.333h-42.666v42.667c0 70.678-57.301 128-128 128-56.448 0-104.256-36.565-121.28-87.274-2.987-14.208 4.97-22.954 11.306-25.664 6.123-2.624 22.848-4.054 28.202 9.408-0.149-0.938-0.32-1.941-0.47-2.922 9.578 36.63 42.602 63.786 82.24 63.786 47.125 0 85.334-38.208 85.334-85.334v-42.666h-256c-21.674 0-42.666-21.226-42.666-42.666v-234.667c0-29.952 31.85-64 64-64h298.666c32.171 0 64 32.618 64 64v234.667c0 20.501-22.144 42.666-42.666 42.666zM426.666 53.334c0-33.13-10.496-42.666-42.666-42.666h-256c-32.981 0-42.666 12.16-42.666 42.666v192c0 17.024 4.117 21.334 21.334 21.334h298.666c18.197 0 21.334-3.712 21.334-21.334v-192zM256 202.666c-20.245 0-21.334-21.334-21.334-21.334v-64c0 0 0.619-21.334 21.334-21.334 20.714 0 21.334 21.334 21.334 21.334v64c0 0-1.088 21.334-21.334 21.334z" />
<glyph unicode="&#xe608;" d="M469.334 309.462h-426.666c-22.378 0-42.666-21.056-42.666-42.666v-106.666c0-21.974 21.866-32.192 42.666-42.666 17.514-8.832 65.386-22.358 85.334-42.666 21.674-22.080 31.040-72.875 42.666-85.334 11.392-12.224 43.094-22.784 84.906-21.334 41.493 0.918 74.368 9.792 85.76 21.334 10.88 11.050 21.696 64.555 42.666 85.334 20.714 20.502 78.89 39.914 85.334 42.666 21.163 9.024 42.666 19.968 42.666 42.666v106.666c0 22.037-19.286 42.666-42.666 42.666zM140.118 124.053c-24.171 15.552-70.57 36.053-76.118 36.053-6.4 0-21.334 6.998-21.334 21.334v21.334h106.666c14.742-37.696 5.504-61.76-9.216-78.72zM320 32.128c-4.608-8.384-26.283-21.334-64.427-21.334-38.102 0-57.536 11.648-63.573 21.334-4.053 6.528-14.166 36.16-25.6 59.392 35.733 39.894 36.886 79.786 25.6 111.274h128c-12.373-31.786-10.005-71.488 24.214-112.171-11.52-23.082-20.267-51.37-24.214-58.496zM469.334 181.462c0-17.195-5.462-21.334-21.334-21.334-13.93 0-54.379-20.438-76.992-36.33-15.082 17.11-24.106 41.344-8.341 78.998h106.666v-21.334zM469.334 224.128h-426.666v21.334c0 17.962 4.224 21.334 21.334 21.334h384c19.498 0 21.334-4.906 21.334-21.334v-21.334z" />
<glyph unicode="&#xe609;" d="M510.827 245.994c-10.56 124.011-109.418 222.72-233.494 232.982v22.358c0 0 0.32 21.334-21.334 21.334-21.632 0-21.334-21.334-21.334-21.334v-22.358c-124.118-10.262-222.976-109.014-233.514-233.109-0.512-1.621-1.152-3.306-1.152-4.8 0-34.218 32.832-33.728 42.666-17.066 8.853 16.214 19.157 21.334 64 21.334 23.125 0 36.864-8.832 42.666-21.334 6.954-14.954 35.157-15.723 42.666 0 5.398 10.219 22.549 16.917 42.666 19.819v-169.152c0-32.448 21.824-64 64-64 41.002 0 64 31.296 64 64 0 30.378-42.666 28.438-42.666 0 0-12.522-9.195-21.334-21.334-21.334-11.456 0-21.334 7.147-21.334 21.334v169.578c20.182-2.538 37.355-9.152 42.666-20.246 6.762-14.784 35.072-15.445 42.666 0 7.616 15.51 22.336 21.334 42.666 21.334 43.99 0 56.726-6.742 64-21.334 7.552-17.536 42.666-16.49 42.666 17.066 0 1.6-0.683 3.264-1.173 4.928zM405.334 288c-41.664 0-64.406-21.334-64.406-21.334s-40.726 21.334-84.928 21.334-85.034-21.334-85.034-21.334-21.355 21.334-64.299 21.334c-22.23 0.384-40.746-2.624-56.192-7.211 24.896 90.219 107.392 156.544 205.525 156.544 98.262 0 180.885-66.538 205.632-156.97-15.829 4.587-34.582 7.637-56.298 7.637z" />
<glyph unicode="&#xe60a;" d="M469.334 394.666h-128c0 0 0 20.267 0 42.666s-18.517 42.667-42.666 42.667h-85.334c-26.197 0-42.666-21.014-42.666-42.667s0-42.666 0-42.666h-128c0 0-21.334-0.234-21.334-21.334s21.334-21.333 21.334-21.333h21.334c0 0 0-289.43 0-320s32.682-64 64-64h256c32.534 0 64 32.064 64 64 0 31.914 0 320 0 320h21.334c0 0 21.334-0.043 21.334 21.334s-21.334 21.334-21.334 21.334zM213.333 416c0 18.262 2.709 21.334 21.333 21.334h42.666c19.072 0 21.334-2.901 21.334-21.334s0-21.334 0-21.334h-85.334c0 0 0 3.050 0 21.334zM405.334 53.334c0-31.616-10.346-42.666-42.666-42.666h-213.333c-33.6 0-42.666 9.834-42.666 42.666s0 298.666 0 298.666h298.666c0 0 0-267.050 0-298.666zM192 74.666c20.63 0 21.334 21.334 21.334 21.334v170.667c0 0-1.685 21.333-21.334 21.333s-21.334-21.334-21.334-21.334v-170.666c0 0 0.704-21.334 21.334-21.334zM320 74.666c20.651 0 21.334 21.334 21.334 21.334v170.667c0 0-1.685 21.333-21.334 21.333-19.627 0-21.334-21.334-21.334-21.334v-170.666c0 0 0.704-21.334 21.334-21.334z" />
<glyph unicode="&#xe60b;" d="M444.118 430.123h-128c-13.76 0-29.718-8.384-42.666-21.334s-215.659-215.659-234.667-234.666-17.195-46.805 0-64l128-128c18.219-18.219 44.587-19.413 64 0s234.667 234.666 234.667 234.666 21.334 24.448 21.334 42.666v128c0 29.974-13.995 42.666-42.666 42.666zM444.118 259.456c0 0-226.858-226.838-234.667-234.667s-12.757-8.576-21.333 0l-106.666 106.666c-8.171 8.171-7.616 13.717 0 21.334 4.95 4.95 234.666 234.667 234.666 234.667s92.714 0 106.666 0c16.618 0 21.334-3.691 21.334-21.334 0-10.838 0-106.666 0-106.666zM369.45 344.789c-17.664 0-32-14.336-32-32s14.336-32 32-32 32 14.336 32 32-14.336 32-32 32z" />
<glyph unicode="&#xe60c;" d="M405.334 480h-298.666c-32.768 0-64-31.808-64-64v-384c0-30.635 32.171-64 64-64h298.666c31.274 0 64 32.789 64 64v384c0 32.064-31.872 64-64 64zM426.666 53.334c0-31.317-11.158-42.666-42.666-42.666h-256c-33.216 0-42.666 9.942-42.666 42.666v341.334c0 30.592 12.758 42.666 42.666 42.666h256c31.574 0 42.666-12.65 42.666-42.666v-341.334zM277.334 74.666h-42.666c0 0-21.334-2.688-21.334-21.334 0-18.666 21.334-21.334 21.334-21.334h42.666c0 0 21.334 3.498 21.334 21.334 0 17.813-21.334 21.334-21.334 21.334z" />
<glyph unicode="&#xe60d;" d="M256 394.666c19.178 0 21.334 21.334 21.334 21.334v42.666c0 0-2.901 21.334-21.334 21.334s-21.334-21.334-21.334-21.334v-42.666c0 0 1.578-21.334 21.334-21.334zM85.334 224c0 18.432-21.334 21.334-21.334 21.334h-42.666c0 0-21.334-1.578-21.334-21.334 0-19.178 21.334-21.334 21.334-21.334h42.666c0 0 21.334 2.901 21.334 21.334zM406.848 344.683l30.166 30.166c0 0 13.034 17.13 0 30.166s-30.166 0-30.166 0l-30.166-30.166c0 0-13.974-16.214 0-30.166 13.568-13.568 30.166 0 30.166 0zM105.152 344.683c0 0 16.213-13.974 30.165 0 13.589 13.568 0 30.166 0 30.166l-30.166 30.166c0 0-17.13 13.034-30.166 0s0-30.166 0-30.166l30.166-30.166zM406.848 103.317c0 0-17.152 13.034-30.166 0-13.034-13.034 0-30.166 0-30.166l30.166-30.166c0 0 16.192-13.952 30.166 0 13.568 13.568 0 30.166 0 30.166l-30.166 30.166zM490.666 245.333h-42.666c0 0-21.334-1.578-21.334-21.333 0-19.178 21.334-21.334 21.334-21.334h42.666c0 0 21.334 2.901 21.334 21.334s-21.334 21.334-21.334 21.334zM256 352c-70.678 0-128-57.322-128-128s57.322-128 128-128 128 57.322 128 128-57.322 128-128 128zM256 138.666c-47.125 0-85.334 38.208-85.334 85.334s38.208 85.334 85.334 85.334 85.334-38.208 85.334-85.334-38.208-85.334-85.334-85.334zM256 53.334c-18.432 0-21.334-21.334-21.334-21.334v-42.666c0 0 1.578-21.334 21.334-21.334 19.178 0 21.334 21.334 21.334 21.334v42.666c0 0-2.901 21.334-21.334 21.334zM105.152 103.317l-30.165-30.166c0 0-13.952-16.214 0-30.166 13.568-13.568 30.166 0 30.166 0l30.166 30.166c0 0 13.035 17.13 0 30.166s-30.166 0-30.166 0z" />
<glyph unicode="&#xe60e;" d="M266.582 239.424v91.243c0 0-1.11 21.333-21.334 21.333-20.202 0-21.334-21.333-21.334-21.333s0-53.163 0-91.243c-12.694-7.403-21.334-20.992-21.334-36.758 0-23.552 19.114-42.666 42.666-42.666s42.666 19.115 42.666 42.666c0 15.744-8.618 29.355-21.334 36.757zM464.832 353.088c0 0 15.702-14.486 30.166 0 14.464 14.442 0 30.166 0 30.166l-60.33 60.352c0 0-15.616 14.549-30.166 0-14.57-14.55 0-30.187 0-30.187l10.666-10.666-19.776-19.776c-40.704 33.92-93.013 54.358-150.144 54.358-129.6 0-234.667-105.067-234.667-234.666s105.067-234.667 234.667-234.667 234.666 105.067 234.666 234.667c0 57.11-20.438 109.418-54.358 150.123l19.776 19.776 19.498-19.478zM436.010 224h-20.075c0 0-21.334-1.962-21.334-21.334 0-19.392 21.334-21.334 21.334-21.334h20.032c-4.096-36.992-18.816-70.72-40.853-98.326l-14.080 14.080c0 0-16.448 13.717-30.166 0-13.738-13.738 0-30.187 0-30.187l14.080-14.080c-27.606-22.058-61.334-36.8-98.346-40.896v20.075c0 0-1.942 21.334-21.334 21.334s-21.334-21.334-21.334-21.334v-20.075c-37.013 4.096-70.742 18.837-98.347 40.896l14.102 14.080c0 0 13.718 16.448 0 30.187-13.739 13.717-30.186 0-30.186 0l-14.080-14.080c-22.080 27.606-36.779 61.334-40.874 98.326h20.032c0 0 21.334 1.942 21.334 21.334 0 19.37-21.334 21.334-21.334 21.334h-20.075c4.096 37.014 18.773 70.762 40.853 98.389l14.144-14.144c0 0 16.448-13.717 30.187 0 13.718 13.717 0 30.166 0 30.166l-14.144 14.123c32.81 26.283 74.368 42.134 119.701 42.134 45.355 0 86.89-15.851 119.702-42.134l-14.101-14.123c0 0-13.738-16.448 0-30.166 13.717-13.717 30.166 0 30.166 0l14.144 14.144c22.080-27.606 36.736-61.376 40.853-98.389z" />
<glyph unicode="&#xe60f;" d="M256 480c-141.376 0-256-114.624-256-256 0-141.398 114.624-256 256-256 141.398 0 256 114.603 256 256 0 141.376-114.603 256-256 256zM256 10.666c-117.803 0-213.333 95.531-213.333 213.334s95.53 213.333 213.333 213.333 213.333-95.53 213.333-213.333-95.531-213.333-213.333-213.333zM298.666 309.333h-85.334c-37.93 0-42.666-5.824-42.666-42.666v-85.334c0-35.221 6.4-42.666 42.666-42.666h85.334c37.163 0 42.666 6.805 42.666 42.666v85.334c0 36.8-5.312 42.666-42.666 42.666z" />
<glyph unicode="&#xe610;" d="M160 224c0 22.571-22.336 42.666-42.666 42.666s0.32 0-21.334 0-42.666-22.293-42.666-42.666c0-113.792 0-170.667 0-170.667h106.666c0 0 0 56.875 0 170.667zM117.334 96h-21.334c0 0 0 85.866 0 106.666s21.334 22.25 21.334 0 0-106.666 0-106.666zM458.666 352c0 22.549-22.336 42.666-42.666 42.666s0.32 0-21.334 0-42.666-22.272-42.666-42.666c0-284.459 0-298.666 0-298.666h106.666c0 0 0 14.208 0 298.666zM416 96h-21.334c0 0 0 213.866 0 234.667s21.334 22.229 21.334 0c0-22.25 0-234.667 0-234.667zM309.334 288c0 22.571-22.336 42.666-42.666 42.666s0.32 0-21.334 0-42.666-22.293-42.666-42.666c0-199.125 0-234.667 0-234.667h106.666c0 0 0 35.541 0 234.667zM266.666 96h-21.334c0 0 0 149.867 0 170.667s21.334 22.25 21.334 0 0-170.667 0-170.667zM458.666 10.666h-405.334c0 0-21.334-0.448-21.334-21.334 0-20.885 21.334-21.333 21.334-21.333h405.334c0 0 21.334 0.918 21.334 21.334s-21.334 21.334-21.334 21.334z" />
<glyph unicode="&#xe611;" d="M426.666 373.334h-12.522c-25.322 62.528-86.549 106.666-158.144 106.666s-132.821-44.139-158.144-106.666h-12.523c-21.718 0-42.666-19.99-42.666-42.666s0-21.696 0-42.667 20.651-42.666 42.666-42.666c0 0 40-218.197 42.666-234.666 5.29-32.704 20.416-42.666 42.666-42.666h170.666c22.507 0 35.243 10.176 42.666 42.666 3.67 16.086 42.666 234.667 42.666 234.667 22.635 0 42.666 21.098 42.666 42.667s0 21.226 0 42.666-20.736 42.666-42.666 42.666zM256 437.334c47.36 0 88.597-25.771 110.72-64h-221.44c22.123 38.229 63.382 64 110.72 64zM341.334 32c-3.456-15.531-9.11-21.334-21.334-21.334h-128c-13.974 0-17.941 8.298-21.334 21.334-2.282 8.832-42.666 213.333-42.666 213.333h256c0 0-39.914-201.002-42.666-213.333zM405.334 288h-298.666c-17.216 0-21.334 4.010-21.334 21.334 0 16.832 5.056 21.334 21.334 21.334h298.666c17.962 0 21.334-3.52 21.334-21.334 0-16.832-4.608-21.334-21.334-21.334zM213.333 53.334c-1.494 11.69-19.050 138.688-21.333 149.334-3.35 15.51-23.446 13.824-21.334 0 2.496-16.555 19.882-141.056 21.334-149.333 2.709-15.488 22.656-10.432 21.334 0z" />
<glyph unicode="&#xe612;" d="M476.95 283.094c-19.221 1.514-142.976 11.328-142.976 11.328s-27.584 69.077-50.474 125.866c-11.136 27.584-48.064 27.925-58.582 0-5.611-14.848-50.901-125.866-50.901-125.866s-73.067-5.077-133.142-10.027c-38.507-3.157-40.448-40.298-14.678-60.117 14.166-10.922 98.389-84.843 98.389-84.843s-13.952-70.25-30.87-128.384c-10.304-35.435 19.968-53.525 48.811-36.736 15.702 9.152 111.488 69.312 111.488 69.312s58.368-39.765 110.208-69.546c27.456-15.766 54.762 1.579 49.75 24.726-3.947 18.219-30.55 140.608-30.55 140.608s62.101 50.091 107.286 92.48c21.738 20.394 12.971 49.067-13.76 51.2zM335.552 158.486l27.947-130.858-109.504 69.291-109.269-64.597 32.576 126.166-102.4 84.096 130.326 9.365 48.768 134.742 53.654-134.742 130.304-9.344-102.4-84.118z" />
<glyph unicode="&#xe613;" d="M256 309.333c23.552 0 42.666 19.115 42.666 42.667s-19.115 42.666-42.666 42.666-42.666-19.114-42.666-42.666 19.114-42.666 42.666-42.666zM384 480h-256c-32.768 0-64-31.808-64-64v-384c0-30.635 32.171-64 64-64h256c31.274 0 64 32.789 64 64v384c0 32.064-31.872 64-64 64zM405.334 53.334c0-31.317-11.158-42.666-42.666-42.666h-213.333c-33.216 0-42.666 9.942-42.666 42.666v341.334c0 30.592 12.758 42.666 42.666 42.666h213.333c31.574 0 42.666-12.65 42.666-42.666v-341.334zM256 266.667c-58.923 0-106.666-47.744-106.666-106.667s47.744-106.666 106.666-106.666 106.666 47.744 106.666 106.666-47.744 106.666-106.666 106.666zM256 96c-35.328 0-64 28.651-64 64s28.672 64 64 64 64-28.651 64-64-28.672-64-64-64zM256 181.334c-11.798 0-21.334-9.558-21.334-21.334 0-11.798 9.536-21.334 21.334-21.334s21.334 9.536 21.334 21.334c0 11.776-9.536 21.334-21.334 21.334z" />
<glyph unicode="&#xe614;" d="M234.667 455.574c-1.707-1.387-128-106.666-128-106.666h-64c-22.933 0-42.666-19.947-42.666-42.667v-170.667c0-21.099 21.93-42.666 42.666-42.666h64l128-106.666c28.821-27.093 64-21.418 64 0v448c0 42.666-25.813 52.373-64 21.334zM256 28.906l-128 106.666h-42.666c0 0-2.666 0-21.334 0-18.645 0-21.334 3.243-21.334 21.334v128c0 17.92 1.685 21.334 21.334 21.334s21.334 0 21.334 0h42.666l128 106.666v-384zM362.666 348.906c-11.861 14.762-42.666 12.886-42.666-21.334 0-9.536 42.666-42.24 42.666-106.666 0-66.454-42.666-98.411-42.666-106.666 0-33.13 28.608-36.95 42.666-21.334 21.205 23.552 43.328 65.13 42.666 128-0.683 64.875-22.933 103.424-42.666 128zM448 412.906c-11.818 14.805-42.666 12.885-42.666-21.334 0-9.728 64-64.32 64-170.666 0-107.136-64-162.709-64-170.666 0-33.13 29.12-37.418 42.666-21.334 9.088 10.816 64 63.914 64 192 0 129.109-56.043 182.037-64 192z" />
<glyph unicode="&#xe615;" d="M314.176 28.906l-128 106.666h-42.666c0 0-24.022 0-42.666 0s-21.334 3.243-21.334 21.334v128c0 17.92 1.686 21.334 21.334 21.334s42.666 0 42.666 0h42.666l128 106.666v-42.666l42.666-42.666v106.666c0 42.667-25.813 52.374-64 21.334-1.707-1.387-128-106.666-128-106.666h-85.334c-22.933 0-42.666-19.947-42.666-42.666v-170.666c0-21.099 21.93-42.666 42.666-42.666h85.334l128-106.666c28.822-27.093 64-21.418 64 0v128l-42.666-42.666v-42.666zM408.341 220.906l60.352 60.33c0 0 14.592 15.574 0 30.166-14.613 14.613-30.166 0-30.166 0l-60.352-60.331-60.33 60.331c0 0-15.894 14.293-30.166 0-14.293-14.293 0-30.166 0-30.166l60.33-60.33-60.331-60.352c0 0-13.462-16.683 0.256-30.4 13.738-13.738 29.909 0.235 29.909 0.235l60.331 60.33 60.352-60.331c0 0 16.981-13.184 30.166 0s0 30.166 0 30.166l-60.352 60.352z" />
<glyph unicode="&#xe616;" d="M448 437.334h-170.667v21.334c0 0-2.304 21.333-21.334 21.333s-21.334-21.333-21.334-21.333v-21.334h-170.667c0 0-21.334-2.731-21.334-21.334s21.334-21.334 21.334-21.334 0-168.96 0-192 17.323-42.666 42.666-42.666h128v-55.466l-84.032-84.032c0 0-13.334-16.853 0-30.187 13.312-13.312 30.166 0 30.166 0l53.867 53.888v-54.87c0 0 2.496-21.333 21.333-21.333s21.334 21.334 21.334 21.334v54.656l53.76-53.76c0 0 16.832-13.312 30.166 0 13.312 13.334 0 30.166 0 30.166l-83.925 83.947v55.659h128c23.104 0 42.666 20.459 42.666 42.666s0 192 0 192 21.334 1.962 21.334 21.334-21.334 21.334-21.334 21.334zM405.334 224c0-17.45-2.389-21.334-21.334-21.334h-256c-18.666 0-21.334 3.286-21.334 21.334s0 170.667 0 170.667h298.666c0 0 0-153.216 0-170.667z" />
<glyph unicode="&#xe617;" d="M256 458.666c-224.256 0-256-128.618-256-234.666 0-74.304 44.395-119.851 106.666-144.981v-47.019c0-20.736 42.666-42.666 42.666-42.666s49.429-21.334 106.667-21.334c57.259 0 106.666 21.334 106.666 21.334s42.666 22.058 42.666 42.666v46.699c62.25 25.238 106.666 71.061 106.666 145.302 0 106.048-34.923 234.667-256 234.667zM382.762 117.334h-20.096c0 0 0-2.709 0-6.912v-57.088c0-12.651-17.238-24.938-42.666-33.088v54.421c0 0-1.622 21.334-21.334 21.334s-21.334-21.334-21.334-21.334v-62.998c-6.933-0.64-14.080-1.002-21.334-1.002s-14.4 0.363-21.334 0.981v63.019c0 0-1.621 21.334-21.334 21.334s-21.334-21.334-21.334-21.334v-54.656c-25.429 8.022-42.666 20.245-42.666 33.322v56.726c0 4.459 0 7.274 0 7.274h-21.398c-48.981 19.136-85.269 52.693-85.269 106.666 0 82.474 42.582 192 213.333 192 170.966 0 213.333-109.526 213.333-192 0-53.824-37.099-87.445-86.57-106.666zM341.334 288c-35.328 0-64-28.65-64-64s28.672-64 64-64 64 28.651 64 64-28.672 64-64 64zM341.334 202.666c-11.798 0-21.334 9.536-21.334 21.334s9.536 21.334 21.334 21.334 21.334-9.536 21.334-21.334-9.536-21.334-21.334-21.334zM170.667 288c-35.328 0-64-28.65-64-64s28.672-64 64-64 64 28.651 64 64-28.672 64-64 64zM170.667 202.666c-11.797 0-21.333 9.536-21.333 21.334s9.536 21.334 21.334 21.334 21.334-9.536 21.334-21.334-9.536-21.334-21.334-21.334z" />
<glyph unicode="&#xe618;" d="M469.334 437.334c0 20.95-21.781 42.666-42.666 42.666h-341.334c-21.078 0-42.666-21.376-42.666-42.666s-42.666-191.702-42.666-213.334c0-9.43 14.742-31.424 42.666-39.466v-173.866c0-21.866 22.677-42.666 42.666-42.666h341.334c21.462 0 42.666 22.166 42.666 42.666v172.885c34.538 7.125 42.666 30.805 42.666 40.448 0 11.37-42.666 192.384-42.666 213.333zM85.334 416c0 11.008 9.835 21.334 21.334 21.334h298.666c13.034 0 21.334-9.92 21.334-21.334 0-6.72 14.762-60.971 26.944-106.666h-395.286c12.181 45.781 27.008 100.181 27.008 106.666zM352.683 266.667c-3.776-7.744-7.957-15.894-11.349-21.334-8.256-13.206-9.707-21.334-21.334-21.334s-16.171 11.819-21.334 21.334c-2.262 4.16-6.635 12.864-10.837 21.334h64.853zM224.234 266.667c-3.776-7.595-7.851-15.659-10.901-21.334-7.552-13.994-10.133-21.781-21.333-21.334-12.416 0.49-16.064 11.456-21.334 21.334-2.282 4.31-6.635 12.928-10.794 21.334h64.362zM42.666 245.333c0 2.176 1.792 10.155 4.566 21.333h48.725c-3.819-7.659-7.85-15.744-10.624-21.334-19.371-39.147-42.666-15.595-42.666 0zM213.333 10.666c0 0 0 51.413 0 64s9.578 21.334 21.333 21.334h42.666c12.16 0 21.334-9.792 21.334-21.334s0-64 0-64h-85.334zM426.666 32c0-10.752-9.301-21.334-21.334-21.334h-64c0 0 0 64.747 0 85.334s-20.502 42.666-42.666 42.666h-85.334c-20.608 0-42.666-22.315-42.666-42.666s0-85.334 0-85.334h-64c-11.947 0-21.334 8.789-21.334 21.334v152.427c33.792 9.514 42.666 39.573 42.666 39.573s11.136-42.667 64-42.667c52.394 0 64 42.666 64 42.666s10.475-42.666 64-42.666c52.331 0 64 42.666 64 42.666s8.086-30.315 42.666-39.702v-152.298zM426.666 245.333c-3.413 5.781-7.51 13.782-11.2 21.333h49.28c2.774-11.2 4.587-19.2 4.587-21.334 0-14.678-20.416-37.675-42.666 0z" />
<glyph unicode="&#xe619;" d="M448 330.667h-128c-32.618 0-64-33.43-64-64v-21.334c0-10.538-21.334-21.334-21.334-21.334s-107.925-49.365-149.333-64c-64-22.613-85.334-52.182-85.334-85.334v-8c0-2.474 0-3.307 0-3.264v-10.070c0-48.256 30.741-85.333 85.334-85.333h362.667c33.322 0 64 31.382 64 64v234.667c0 32.085-32.384 64-64 64zM426.666 10.666h-320c-38.763 0-64.341 16.96-64 42.666h426.666c0-32.597-11.456-42.666-42.666-42.666zM469.334 74.666h-426.666c0 13.589 17.024 32.512 42.666 42.666 4.544 1.792 21.718 8.277 43.478 16.448 1.344-6.293 5.738-16.448 20.523-16.448 21.333 0 21.184 21.334 21.184 21.334v10.731c14.934 5.589 29.867 11.158 42.965 16.064v-5.462c0 0-0.149-21.334 21.184-21.334s21.184 21.334 21.184 21.334v21.269c0.022 0.022 0.15 0.064 0.15 0.064s6.613 3.307 14.613 8.555l31.19-31.19c0 0 14.976-15.19 30.166 0s0 30.166 0 30.166l-33.621 33.642c0.022 0.512 0.32 1.002 0.32 1.493v21.334c0 31.36 10.219 42.666 42.666 42.666h85.334c32.683 0 42.666-11.69 42.666-42.666v-170.666z" />
<glyph unicode="&#xe61a;" d="M469.334 437.334c-18.517 0-23.445-21.334-106.666-21.334-52.288 0-107.136 64-107.136 64s-54.954-64-106.198-64c-84.608 0-92.16 21.334-106.666 21.334s-21.334-3.115-21.334-21.334 0.576-192.981 21.334-256c42.154-128.022 212.864-192 212.864-192s172.587 65.493 213.803 192c20.373 62.486 21.334 240.256 21.334 256s-2.795 21.334-21.334 21.334zM426.666 160c-28.544-85.077-171.136-149.333-171.136-149.333s-142.4 64.726-170.197 149.333c-20.886 63.574-20.971 209.856-21.334 221.866 5.013-3.52 30.251-8.534 76.8-8.534 62.442 0 115.2 46.934 115.2 46.934s44.522-46.934 115.2-46.934c46.998 0 76.8 8.534 76.8 8.534 0-34.709-0.064-158.442-21.334-221.866zM320 245.333h-42.666v42.667c0 0 0.747 21.334-21.334 21.334s-21.334-21.334-21.334-21.334v-42.666h-42.666c0 0-21.334 0.661-21.334-21.334s21.334-21.334 21.334-21.334h42.666v-42.666c0 0-0.171-21.334 21.334-21.334s21.334 21.334 21.334 21.334v42.666h42.666c0 0 21.334 0.214 21.334 21.334s-21.334 21.334-21.334 21.334z" />
<glyph unicode="&#xe61b;" d="M483.67 412.459l-31.36-31.147c0.022-0.043 0.043-0.086 0.064-0.128-9.834-9.856-22.507-22.528-29.142-29.184-10.731-10.752-28.587-14.080-42.666 0-13.014 13.034-10.432 32.214 0 42.666 7.211 7.211 19.563 19.563 29.163 29.163l31.274 31.296c-23.594 15.637-51.733 24.875-81.77 24.875-81.579 0-149.333-67.584-149.333-149.333 0-18.88 3.755-36.95 10.326-53.675-59.541-59.52-182.293-182.272-202.326-202.325-26.624-26.666-20.928-64.363 0-85.334 20.096-20.139 59.669-25.706 85.334 0 19.328 19.349 142.613 142.635 202.326 202.325 16.704-6.57 34.794-10.325 53.675-10.325 81.579 0 149.334 67.584 149.334 149.334 0 30.080-9.238 58.218-24.896 81.792zM465.899 330.667c0-58.368-48.406-106.667-106.666-106.667-23.765 0-45.675 8.341-63.531 21.803-28.736-28.736-82.133-82.134-128.47-128.47l-21.333 21.334-42.666-42.666 21.334-21.334c-23.040-23.040-39.594-39.594-42.666-42.666-19.627-19.669-41.024 1.622-21.334 21.334 9.472 9.472 158.101 158.123 213.781 213.803-13.462 17.856-21.781 39.744-21.781 63.531 0 58.368 48.363 106.666 106.646 106.666-6.699-6.72-14.208-14.208-21.312-21.334-17.11-17.13-17.579-65.024 12.16-94.805 27.712-27.776 76.971-29.398 94.507-11.862 7.424 7.445 14.784 14.805 21.334 21.334 0 0 0 0 0 0z" />
<glyph unicode="&#xe61c;" d="M256 309.333c-47.125 0-85.334-38.208-85.334-85.333s38.208-85.334 85.334-85.334 85.334 38.208 85.334 85.334-38.208 85.334-85.334 85.334zM256 181.334c-23.552 0-42.666 19.115-42.666 42.666s19.114 42.666 42.666 42.666 42.666-19.114 42.666-42.666-19.115-42.666-42.666-42.666zM469.334 266.667h-26.646c-4.885 21.312-12.928 41.429-24.277 59.392l18.603 18.603c14.976 14.998 14.315 46.037 0 60.352-14.315 14.293-45.696 14.656-60.352 0-6.55-6.55-13.163-13.184-18.582-18.603-17.984 11.328-38.101 19.37-59.413 24.277v26.646c0 21.184-22.442 42.666-42.666 42.666s-42.666-21.93-42.666-42.666v-26.646c-21.312-4.906-41.429-12.949-59.413-24.298-5.376 5.398-11.968 11.99-18.582 18.624-14.998 14.976-46.037 14.293-60.352 0-14.315-14.315-14.656-45.696 0-60.352 6.528-6.528 13.142-13.142 18.56-18.56-11.328-18.005-19.776-38.037-24.64-59.434h-26.24c-21.184 0-42.666-22.442-42.666-42.666s21.91-42.666 42.666-42.666h26.645c4.906-21.312 12.95-41.43 24.278-59.413-5.376-5.376-11.989-11.968-18.602-18.582-14.976-14.998-14.315-46.038 0-60.352s45.696-14.678 60.352 0l18.602 18.603c17.963-11.328 38.080-19.37 59.392-24.277v-26.645c0-21.206 22.442-42.666 42.666-42.666s42.666 21.909 42.666 42.666v26.624c21.312 4.906 41.43 12.95 59.392 24.298l18.603-18.603c14.998-14.976 46.038-14.315 60.352 0s14.678 45.696 0 60.352c-6.528 6.528-13.142 13.12-18.56 18.538 11.328 18.026 19.776 38.058 24.618 59.456h26.262c21.205 0 42.666 22.442 42.666 42.666s-21.909 42.666-42.666 42.666zM256 74.666c-82.454 0-149.333 66.858-149.333 149.334 0 82.454 66.88 149.333 149.333 149.333 82.475 0 149.333-66.88 149.333-149.333 0-82.475-66.858-149.333-149.333-149.333z" />
<glyph unicode="&#xe61d;" d="M0 416v-64h42.666v42.666c0 31.083 9.834 42.666 42.666 42.666h42.666v42.667h-64c-34.005 0-64-31.19-64-64zM213.333-32h85.333v42.666h-85.334v-42.666zM42.666 266.667h-42.666v-85.334h42.666v85.334zM42.666 53.334v42.666h-42.666v-64c0-33.558 30.741-64 64-64h64v42.666h-42.666c-32.746 0-42.666 11.541-42.666 42.666zM213.333 437.334h85.333v42.666h-85.334v-42.666zM469.334 181.334h42.666v85.334h-42.666v-85.334zM448 480h-64v-42.666h42.666c31.339 0 42.666-11.69 42.666-42.666v-42.667h42.666v64c0 32.576-30.635 64-64 64zM469.334 53.334c0-30.678-9.664-42.666-42.666-42.666h-42.666v-42.666h64c32.534 0 64 30.442 64 64v64h-42.666v-42.666z" />
<glyph unicode="&#xe61e;" d="M481.558 4.31c-1.728 1.792-87.786 91.072-113.259 117.483 25.046 32.32 40.235 72.746 40.235 117.142 0 107.094-87.466 192-192 192s-192-84.906-192-192 87.466-192 192-192c45.632 0 88 16.192 121.259 43.306 23.424-24.384 109.738-114.304 111.36-115.947 2.262-2.283 20.075-12.715 32.171-0.448 12.544 13.12 2.304 28.373 0.235 30.464zM216.534 89.6c-81.322 0-149.333 66.048-149.333 149.333s68.011 149.333 149.333 149.333 149.333-66.048 149.333-149.333-68.010-149.333-149.333-149.333z" />
<glyph unicode="&#xe61f;" d="M426.666 373.995h21.334c20.288 0 42.666 23.445 42.666 42.666 0 19.221 0 0.747 0 21.334s-23.445 42.666-42.666 42.666h-384c-20.95 0-42.666-21.738-42.666-42.666s0-0.555 0-21.334 22.144-42.666 42.666-42.666h21.334c0-64.298 35.584-120.235 88.106-149.334-52.523-29.099-88.106-85.034-88.106-149.334h-21.334c-20.95 0-42.666-21.738-42.666-42.666s0-0.555 0-21.334 22.144-42.666 42.666-42.666h384c20.288 0 42.666 23.445 42.666 42.666 0 19.2 0 0.747 0 21.334s-23.445 42.666-42.666 42.666h-21.334c0 64.298-35.584 120.235-88.106 149.333 52.522 29.12 88.106 85.056 88.106 149.333zM85.334 437.995h341.334c20.075 0 20.693-21.334 0-21.334h-341.334c-20.523 0-21.162 21.334 0 21.334zM426.666 11.328h-341.334c-20.523 0-21.162 21.334 0 21.334h341.334c20.075 0 20.694-21.334 0-21.334zM384 75.328h-256c0 70.678 57.322 128 128 128s128-57.301 128-128zM256 245.994c-70.678 0-128 57.302-128 128h256c0-70.699-57.322-128-128-128z" />
<glyph unicode="&#xe620;" d="M107.136 10.666c0-23.564-19.102-42.666-42.666-42.666-23.564 0-42.666 19.103-42.666 42.666 0 23.564 19.102 42.666 42.666 42.666 23.564 0 42.666-19.103 42.666-42.666zM41.322 244.394c-8.149-4.394-39.147-23.552 1.792-41.707 1.322-0.534 2.56-1.195 3.755-1.834 110.635-11.819 198.186-100.16 208.384-211.2 0.32-0.555 0.49-1.173 0.789-1.728 0.149-0.32 0.298-0.598 0.448-0.896v2.304c20.843-40.49 37.632-10.752 41.707-2.154-9.472 137.707-119.232 247.616-256.875 257.216zM41.13 436.352c-8.362-4.245-38.038-21.93 2.005-41.685-0.32 0-0.618 0-0.896 0 0 0 0 0 0 0 1.706-0.555 3.413-1.066 4.928-1.813 216.597-12.822 389.354-186.454 400.149-403.52 0.448-0.768 0.768-1.558 1.173-2.325v2.325c20.288-37.718 37.589-9.813 41.707-1.92-10.005 243.648-205.376 438.998-449.067 448.938zM490.005-9.771c0-12.277-9.456-22.229-21.12-22.229s-21.12 9.952-21.12 22.23c0 12.277 9.456 22.23 21.12 22.23 11.664 0 21.12-9.952 21.12-22.23zM64.576 414.379c0-12.006-9.456-21.739-21.12-21.739s-21.12 9.733-21.12 21.739c0 12.006 9.456 21.738 21.12 21.738 11.665 0 21.12-9.733 21.12-21.738zM297.664-9.771c0-12.277-9.456-22.229-21.12-22.229s-21.12 9.952-21.12 22.23c0 12.277 9.456 22.23 21.12 22.23 11.664 0 21.12-9.952 21.12-22.23zM63.552 222.229c0-11.971-9.255-21.675-20.672-21.675s-20.672 9.704-20.672 21.675c0 11.97 9.255 21.674 20.672 21.674 11.417 0 20.672-9.704 20.672-21.674z" />
<glyph unicode="&#xe621;" d="M106.666 373.334c0 0-21.334-1.472-21.334-21.334 0-19.882 21.334-21.334 21.334-21.334s21.334 1.322 21.334 21.334-21.334 21.334-21.334 21.334zM170.667 373.334c0 0-21.333-1.472-21.333-21.334 0-19.882 21.334-21.334 21.334-21.334s21.334 1.322 21.334 21.334-21.334 21.334-21.334 21.334zM448 437.334h-384c-32.128 0-64-33.493-64-64v-341.334c0-31.894 31.957-64 64-64h384c30.678 0 64 32.789 64 64v341.334c0 31.915-31.872 64-64 64zM469.334 53.334c0-31.744-10.474-42.666-42.666-42.666h-341.334c-32.278 0-42.666 10.070-42.666 42.666v213.334h426.666v-213.334zM469.334 309.333h-426.666v42.667c0 31.211 9.152 42.666 42.666 42.666h341.334c32.214 0 42.666-10.794 42.666-42.666v-42.666zM234.667 373.334c0 0-21.333-1.472-21.333-21.334 0-19.882 21.334-21.334 21.334-21.334s21.334 1.322 21.334 21.334-21.334 21.334-21.334 21.334z" />
<glyph unicode="&#xe622;" d="M149.333 330.667h213.333c0 0 21.334 1.792 21.334 21.333s-21.334 21.334-21.334 21.334h-213.333c0 0-21.334-0.618-21.334-21.334s21.334-21.333 21.334-21.333zM469.334 437.334c-1.792 11.84-19.798 42.666-42.666 42.666h-341.334c-26.090 0-40.746-28.736-42.666-42.666-1.92-13.952-42.666-256-42.666-256s0-149.994 0-170.666 21.078-42.666 42.666-42.666h426.666c22.101 0 42.666 21.546 42.666 42.666 0 8.086 0 170.667 0 170.667s-40.875 244.16-42.666 256zM85.334 416c0 0 2.88 21.334 21.334 21.334h298.666c16.576 0 21.334-21.334 21.334-21.334l39.104-234.667h-145.77c0 0 0-22.635 0-42.666 0-15.702-4.16-21.334-21.334-21.334h-85.334c-17.77 0-21.334 3.882-21.334 21.334 0 19.456 0 42.666 0 42.666h-145.77l39.104 234.667zM469.334 32c0-16.618-3.712-21.334-21.334-21.334h-384c-18.88 0-21.334 5.205-21.334 21.334v106.666h106.666c0 0 0-13.099 0-21.334 0-20.394 21.888-42.666 42.667-42.666h128c19.755 0 42.666 22.55 42.666 42.666 0 8.534 0 21.334 0 21.334h106.666v-106.666zM405.334 266.667c0 19.541-21.334 21.333-21.334 21.333h-256c0 0-21.334-0.619-21.334-21.334s21.334-21.334 21.334-21.334h256c0 0 21.334 1.792 21.334 21.334z" />
<glyph unicode="&#xe623;" d="M298.666 96h-85.334c0 0-21.334-1.216-21.334-21.334s21.334-21.334 21.334-21.334h85.334c0 0 21.334 1.642 21.334 21.334 0 20.010-21.334 21.334-21.334 21.334zM448 352h-42.666c0 0 0 52.374 0 85.334 0 21.184-23.125 42.666-42.666 42.666h-213.333c-21.418 0-42.666-21.675-42.666-42.666 0-32.81 0-85.334 0-85.334h-42.666c-32.49 0-64-32.214-64-64v-170.667c0-31.552 31.189-64 64-64h42.666v-42.666c0-32.064 10.24-42.666 42.666-42.666h213.333c31.68 0 42.666 10.048 42.666 42.666v42.666h42.666c31.765 0 64 32.171 64 64v170.667c0 31.616-31.552 64-64 64zM149.333 416c0 18.645 2.155 21.334 21.333 21.334h170.666c20.373 0 21.334-0.768 21.334-21.334 0-30.912 0-64 0-64h-213.333c0 0 0 33.173 0 64zM362.666 202.666v-170.666c0-31.296-2.432-21.334-21.334-21.334h-170.667c-20.821 0-21.333 1.387-21.333 21.334v170.667c0 29.888-11.563 21.334 21.334 21.334h170.666c33.002 0 21.334 10.518 21.334-21.334zM469.334 138.666c0-31.51-12.63-42.666-42.666-42.666h-21.334v128c0 30.549-9.962 42.666-42.666 42.666h-213.333c-31.51 0-42.666-9.834-42.666-42.666v-128h-21.334c-32.384 0-42.666 10.794-42.666 42.666v128c0 30.57 11.413 42.666 42.666 42.666h341.333c31.574 0 42.666-12.459 42.666-42.666v-128zM298.666 181.334h-85.334c0 0-21.334-1.216-21.334-21.334s21.334-21.334 21.334-21.334h85.334c0 0 21.334 1.642 21.334 21.334 0 20.010-21.334 21.334-21.334 21.334z" />
<glyph unicode="&#xe624;" d="M256 480c-141.376 0-256-114.624-256-256 0-141.398 114.624-256 256-256 141.398 0 256 114.603 256 256 0 141.376-114.603 256-256 256zM256 10.666c-117.803 0-213.333 95.531-213.333 213.334s95.53 213.333 213.333 213.333 213.333-95.53 213.333-213.333-95.531-213.333-213.333-213.333zM320 309.333l-64-64c-24.554-24.554-24.661-18.006 0-42.667l64-64c30.101-30.101 42.666-25.792 42.666 0v170.666c0 28.182-13.76 28.907-42.666 0zM149.333 309.333v-170.666c0-25.877 64-25.813 64 0v170.666c0 27.584-64 26.346-64 0z" />
<glyph unicode="&#xe625;" d="M256 480c-141.376 0-256-114.624-256-256 0-141.398 114.624-256 256-256 141.376 0 256 114.603 256 256 0 141.376-114.624 256-256 256zM256 10.666c-117.824 0-213.333 95.531-213.333 213.334s95.51 213.333 213.333 213.333c117.824 0 213.333-95.53 213.333-213.333s-95.51-213.333-213.333-213.333zM320 245.333l-64 64c-28.906 28.907-42.666 28.182-42.666 0v-170.666c0-25.792 12.565-30.101 42.666 0l64 64c24.661 24.661 24.534 18.112 0 42.666z" />
<glyph unicode="&#xe626;" d="M383.957 202.666c-11.392 20.096-42.666 85.334-42.666 85.334v85.334c0 0 29.888 58.582 42.666 85.334 5.675 11.861-8.747 21.333-21.334 21.333h-213.333c-13.162 0-28.288-8.726-21.334-21.333 11.093-20.096 42.666-85.334 42.666-85.334v-85.334c0 0-29.547-58.582-42.666-85.334-5.802-11.861 8.426-21.334 21.334-21.334h64l42.667-213.333 42.666 213.333h64c13.546 0 28.502 8.704 21.334 21.334zM298.624 224h-85.334c-20.374 0-14.166 21.334 0 21.334h85.334c16.49 0 13.93-21.334 0-21.334zM213.291 288v85.334h85.334v-85.334h-85.334zM298.624 416h-85.334c-16.042 0-13.547 21.334 0 21.334h85.334c19.84 0 13.781-21.334 0-21.334z" />
<glyph unicode="&#xe627;" d="M425.622 288h11.158c0.214 3.563 0.534 7.062 0.534 10.666 0.022 100.138-81.173 181.334-181.312 181.334s-181.333-81.195-181.333-181.334c0-3.606 0.341-7.104 0.534-10.666h10.219c-6.058-5.034-10.752-12.075-10.752-21.334 0-43.755 149.333-256 149.333-256s28.501-42.666 42.666-42.666c13.163 0 42.666 42.666 42.666 42.666s128 225.963 128 256c0 8.534-5.142 15.915-11.712 21.334zM394.666 288c0-17.451-95.061-215.254-106.666-234.667-13.824-23.19-30.123-22.144-42.666 0-11.413 20.16-128 218.582-128 234.667h0.534c-0.256 3.541-0.534 7.061-0.534 10.666 0 76.587 62.080 138.666 138.666 138.666s138.667-62.080 138.667-138.666c0-3.606-0.277-7.125-0.534-10.666h0.534zM256 352c-29.462 0-53.334-23.872-53.334-53.334s23.872-53.334 53.334-53.334 53.334 23.872 53.334 53.334-23.872 53.334-53.334 53.334z" />
<glyph unicode="&#xe628;" d="M486.378 395.606c-11.584 11.584-29.909 29.888-42.666 42.666-12.757 12.757-52.608 11.392-64 0s-320-320-320-320-36.928-110.848-42.666-128c-5.248-15.339 5.675-25.493 21.334-21.334 27.882 9.92 128 42.666 128 42.666s305.259 305.28 320 320 11.584 52.416 0 64zM59.712 11.606l42.666 64 21.334-21.334-64-42.666zM443.712 352.938c-9.216-9.216-277.334-277.333-277.334-277.333l-42.666 42.666c0 0 110.421 110.421 192 192l42.666-42.666 42.666 42.666-42.666 42.666c23.786 23.808 40.341 40.32 42.666 42.667 19.435 19.434 62.954-22.379 42.666-42.667z" />
<glyph unicode="&#xe629;" d="M426.666 437.334h-128c-20.63 0-42.666-18.774-42.666-42.666v-384c0-20.757 20.438-42.666 42.666-42.666h128c21.205 0 42.666 20.672 42.666 42.666v384c0 21.696-20.416 42.666-42.666 42.666zM426.666 32c0-18.346-3.606-21.334-21.334-21.334h-85.334c-18.666 0-21.334 3.029-21.334 21.334v21.334h21.334c0 0 21.334-0.426 21.334 21.334s-21.334 21.334-21.334 21.334h-21.334v42.666h64c0 0 21.334-0.426 21.334 21.334s-21.334 21.334-21.334 21.334h-64v42.666h21.334c0 0 21.334-0.426 21.334 21.334s-21.334 21.334-21.334 21.334h-21.334v42.666h64c0 0 21.334-0.427 21.334 21.334s-21.334 21.334-21.334 21.334h-64v21.333c0 19.115 3.413 21.334 21.334 21.334h85.334c19.136 0 21.334-3.349 21.334-21.334v-341.333zM128 437.334c-21.44 0-20.438 0-42.666 0s-42.666-20.992-42.666-42.666c0-21.696 0-320 0-320s35.243-70.507 42.666-85.334c10.133-20.202 32.746-20.181 42.666 0l42.666 85.334c0 0 0 299.52 0 320s-21.226 42.666-42.666 42.666zM106.666 32l-21.334 42.666h42.666l-21.334-42.666zM128 117.334h-42.666c0 0 0 115.819 0 192h42.666c0-76.096 0-192 0-192zM128 352h-42.666v21.334c0 18.709 0.106 21.334 21.334 21.334 21.248 0 21.333-4.822 21.333-21.334v-21.334z" />
<glyph unicode="&#xe62a;" d="M256 480c-141.376 0-256-114.624-256-256 0-141.398 114.624-256 256-256s256 114.603 256 256c0 141.376-114.624 256-256 256zM256 10.666c-117.824 0-213.333 95.531-213.333 213.334s95.51 213.333 213.333 213.333 213.333-95.53 213.333-213.333-95.51-213.333-213.333-213.333zM277.334 288v-128c0-25.813 64-25.877 64 0v128c0 26.368-64 27.563-64 0zM170.667 288v-128c0-25.813 64-25.877 64 0v128c0 26.368-64 27.563-64 0z" />
<glyph unicode="&#xe62b;" d="M405.334 224h-170.667c0 0-21.333-0.81-21.333-21.334 0-20.544 21.334-21.334 21.334-21.334h170.667c0 0 21.334 0.49 21.334 21.334 0 20.822-21.334 21.334-21.334 21.334zM405.334 309.333h-170.667c0 0-21.333-0.81-21.333-21.333 0-20.523 21.334-21.334 21.334-21.334h170.667c0 0 21.334 0.49 21.334 21.334 0 20.822-21.334 21.334-21.334 21.334zM448 437.334h-256c-32.171 0-64-31.552-64-64v-192h-128c0 0 0-117.162 0-149.334s31.36-64 64-64h21.334c0 0 26.005 0 64 0h298.666c31.872 0 64 31.574 64 64v341.334c0 30.507-31.616 64-64 64zM128 53.334c0-31.125-12.374-42.666-42.666-42.666-31.296 0-42.666 9.664-42.666 42.666s0 85.334 0 85.334h85.333v-85.334zM469.334 53.334c0-32.043-12.757-42.666-42.666-42.666s-264.832 0.086-264.832 0.086c7.51 4.416 8.832 18.048 8.832 21.248v320c0 32.618 11.030 42.666 42.666 42.666h213.334c31.659 0 42.666-11.712 42.666-42.666v-298.666zM405.334 138.666h-170.667c0 0-21.333-0.832-21.333-21.334 0-20.544 21.334-21.334 21.334-21.334h170.667c0 0 21.334 0.49 21.334 21.334s-21.334 21.334-21.334 21.334z" />
<glyph unicode="&#xe62c;" d="M256 245.333l-64 64c-28.906 28.907-42.666 28.182-42.666 0v-170.666c0-25.792 12.565-30.101 42.666 0 15.488 15.466 47.573 47.574 64 64 24.661 24.661 24.555 18.112 0 42.666zM256 480c-141.376 0-256-114.624-256-256 0-141.398 114.624-256 256-256s256 114.603 256 256c0 141.376-114.624 256-256 256zM256 10.666c-117.803 0-213.333 95.531-213.333 213.334s95.53 213.333 213.333 213.333 213.333-95.53 213.333-213.333-95.531-213.333-213.333-213.333zM298.666 309.333v-170.666c0-25.813 64-25.877 64 0v170.666c0 26.346-64 27.584-64 0z" />
<glyph unicode="&#xe62d;" d="M469.334 138.666c-63.552 0-62.55 85.334-128 85.334s-85.142-42.666-85.142-42.666-23.018 42.666-85.525 42.666c-64.96 0-64.043-85.334-128-85.334-17.515 0-42.666 21.334-42.666 21.334s0-192 149.334-192c85.184 0 106.858 42.666 106.858 42.666s20.48-42.666 106.475-42.666c149.333 0 149.333 192 149.333 192s-29.355-21.334-42.666-21.334zM362.666 10.666c-80.939 0-106.474 64-106.474 64s-36.374-64-106.858-64-100.416 64.832-106.666 85.334c36.352-6.57 56.938 15.36 64 21.334 29.59 25.002 44.373 64 64 64 42.304 0 64.427-23.274 85.525-64 20.096 40.512 42.688 64 85.142 64 20.714 0 33.408-41.067 64-64 6.656-4.992 28.8-28.075 64-21.334-4.63-21.142-25.728-85.334-106.666-85.334z" />
<glyph unicode="&#xe62e;" d="M426.538 416c0 19.669-21.334 21.334-21.334 21.334l-170.667-42.666c0 0-21.333-4.8-21.333-21.334v-246.507c-12.587 7.339-27.029 11.84-42.645 11.84-47.126 0-85.334-38.208-85.334-85.334s38.208-85.333 85.334-85.333c46.422 0 84.011 37.12 85.12 83.264 0.149 1.195 0.214 2.070 0.214 2.070v170.667l149.333 42.667c0 0 20.842 3.008 21.334 21.334 0.512 19.349-0.022 108.33-0.022 128zM170.56 10.666c-23.552 0-42.666 19.115-42.666 42.666s19.115 42.666 42.666 42.666 42.666-19.115 42.666-42.666-19.114-42.666-42.666-42.666zM383.872 304.576l-128-37.91v85.334l128 36.95v-84.373z" />
<glyph unicode="&#xe62f;" d="M426.666 437.334l-213.333-42.666c0 0-21.333-4.8-21.333-21.334v-246.507c-12.587 7.339-27.050 11.84-42.666 11.84-47.126 0-85.334-38.208-85.334-85.334s38.208-85.333 85.334-85.333c46.422 0 84.010 37.12 85.12 83.264 0.149 1.195 0.214 2.070 0.214 2.070v170.667l170.667 37.91v-92.416c-12.608 7.339-27.050 11.84-42.666 11.84-47.125 0-85.334-38.208-85.334-85.334s38.208-85.334 85.334-85.334 85.334 38.208 85.334 85.334c0 0 0 300.33 0 320s-21.334 21.334-21.334 21.334zM149.333 10.666c-23.552 0-42.666 19.115-42.666 42.666s19.115 42.666 42.666 42.666 42.667-19.115 42.667-42.666-19.114-42.666-42.666-42.666zM362.666 53.334c-23.552 0-42.666 19.115-42.666 42.666s19.115 42.666 42.666 42.666 42.666-19.115 42.666-42.666-19.115-42.666-42.666-42.666zM405.334 304.576l-170.667-37.91v85.334l170.667 36.95v-84.373z" />
<glyph unicode="&#xe630;" d="M362.666 117.334c-94.25 0-170.667 76.416-170.667 170.666 0 40.043 13.867 76.779 36.95 105.878-5.162 0.362-10.346 0.789-15.616 0.789-12.757 0-25.195-1.322-37.334-3.478-0.171-0.298-0.278-0.64-0.448-0.938 0.171 0.298 0.278 0.64 0.448 0.938-99.99-17.685-176-104.81-176-209.856 0-117.803 95.531-213.334 213.333-213.334 80.362 0 150.294 44.48 186.667 110.144 8.469 15.274 14.933 31.765 19.478 49.088-17.792-6.293-36.842-9.899-56.81-9.899zM213.333 10.666c-94.251 0-170.667 76.416-170.667 170.666 0 74.219 47.466 137.152 113.6 160.661-4.523-17.238-6.934-35.328-6.934-53.995 0-112.512 87.21-204.502 197.696-212.544-31.253-39.424-79.488-64.789-133.696-64.789z" />
<glyph unicode="&#xe631;" d="M448 437.334h-384c-32.768 0-64-31.808-64-64v-234.667c0-30.635 32.15-64 64-64h92.48c-11.776-35.392-26.838-80.618-28.48-85.334-2.731-7.829-0.96-21.333 21.333-21.333h213.334c17.45 0 24.598 12.8 21.334 21.334-2.154 6.57-16.875 50.688-28.416 85.334h92.416c31.274 0 64 32.789 64 64v234.667c0 32.064-31.872 64-64 64zM323.328 10.666h-134.742c-5.952 0-6.784 4.202-5.333 8.576 1.429 4.373 17.494 55.296 17.494 55.296l109.845 0.128c0 0 16.853-50.752 18.176-55.424 1.322-4.651-0.064-8.576-5.44-8.576zM469.334 160c0-31.317-11.158-42.666-42.666-42.666h-341.334c-33.216 0-42.666 9.942-42.666 42.666v192c0 30.592 12.758 42.666 42.666 42.666h341.334c31.574 0 42.666-12.65 42.666-42.666v-192z" />
<glyph unicode="&#xe632;" d="M352 480h-192c-32.768 0-64-31.808-64-64v-384c0-30.635 32.171-64 64-64h192c31.274 0 64 32.789 64 64v384c0 32.064-31.872 64-64 64zM373.334 53.334c0-31.317-11.158-42.666-42.666-42.666h-149.333c-33.216 0-42.667 9.942-42.667 42.666v341.334c0 30.592 12.757 42.666 42.666 42.666h149.334c31.574 0 42.666-12.65 42.666-42.666v-341.334zM266.666 74.666h-21.334c0 0-21.334-2.688-21.334-21.334 0-18.666 21.334-21.334 21.334-21.334h21.334c0 0 21.334 3.498 21.334 21.334 0 17.813-21.334 21.334-21.334 21.334z" />
<glyph unicode="&#xe633;" d="M170.667 138.666h-21.333v192c0 0-1.814 21.334-21.334 21.334s-21.334-21.334-21.334-21.334v-192h-21.334c0 0-21.334-0.192-21.334-21.334s21.334-21.334 21.334-21.334h21.334v-21.334c0 0 0.192-21.334 21.334-21.334s21.334 21.334 21.334 21.334v21.334h21.334c0 0 21.334 1.813 21.334 21.334s-21.334 21.334-21.334 21.334zM298.666 224h-21.334v106.666c0 0-1.813 21.334-21.334 21.334s-21.334-21.334-21.334-21.334v-106.666h-21.334c0 0-21.334-0.214-21.334-21.334 0-21.142 21.334-21.334 21.334-21.334h21.334v-106.666c0 0 0.192-21.334 21.334-21.334s21.334 21.334 21.334 21.334v106.666h21.334c0 0 21.334 1.813 21.334 21.334s-21.334 21.334-21.334 21.334zM448 437.334h-384c-32.768 0-64-31.808-64-64v-341.334c0-30.635 32.15-64 64-64h384c31.274 0 64 32.789 64 64v341.334c0 32.064-31.872 64-64 64zM469.334 53.334c0-31.317-11.158-42.666-42.666-42.666h-341.334c-33.216 0-42.666 9.942-42.666 42.666v298.666c0 30.592 12.758 42.666 42.666 42.666h341.334c31.574 0 42.666-12.65 42.666-42.666v-298.666zM426.666 309.333h-21.334v21.334c0 0-1.813 21.334-21.334 21.334s-21.334-21.334-21.334-21.334v-21.334h-21.334c0 0-21.334-0.214-21.334-21.334 0-21.142 21.334-21.334 21.334-21.334h21.334v-192c0 0 0.214-21.334 21.334-21.334 21.142 0 21.334 21.334 21.334 21.334v192h21.334c0 0 21.334 1.792 21.334 21.334 0 19.52-21.334 21.334-21.334 21.334z" />
<glyph unicode="&#xe634;" d="M256 202.666c40.618 0 85.334 21.099 85.334 64v149.334c0 41.6-42.666 64-85.334 64-41.387 0-85.334-21.888-85.334-64v-149.334c0-41.621 43.669-64 85.334-64zM213.333 394.666c0 30.762 10.838 42.666 42.667 42.666 31.872 0 42.666-12.394 42.666-42.666v-106.666c0-32.256-10.709-42.666-42.666-42.666s-42.666 13.12-42.666 42.666v106.666zM426.666 266.667c0-0.214-0.426 21.333-21.334 21.333s-21.334-21.334-21.334-21.334-1.472-106.666-128-106.666-128 106.666-128 106.666c0 8.107 0.042 21.334-21.334 21.334s-21.334-21.334-21.334-21.334c0-138.646 149.333-149.334 149.333-149.334v-106.666h-64c0 0-21.334-0.96-21.334-21.334s21.334-21.333 21.334-21.333h170.667c0 0 21.334 0 21.334 21.334s-21.334 21.334-21.334 21.334h-64v106.666c0 0 149.333 10.603 149.333 149.334z" />
<glyph unicode="&#xe635;" d="M64 352h-42.666c0 0-21.334-1.344-21.334-21.334 0-19.989 21.334-21.334 21.334-21.334h42.666c0 0 21.334 2.346 21.334 21.334s-21.334 21.334-21.334 21.334zM170.667 309.333h320c0 0 21.333 2.346 21.333 21.334s-21.334 21.334-21.334 21.334h-320c0 0-21.334-1.344-21.334-21.334s21.334-21.334 21.334-21.334zM64 181.334h-42.666c0 0-21.334-1.344-21.334-21.334 0-20.010 21.334-21.334 21.334-21.334h42.666c0 0 21.334 2.346 21.334 21.334s-21.334 21.334-21.334 21.334zM490.666 181.334h-320c0 0-21.334-1.344-21.334-21.334 0-20.010 21.334-21.334 21.334-21.334h320c0 0 21.334 2.346 21.334 21.334s-21.334 21.334-21.334 21.334zM64 10.666h-42.666c0 0-21.334-1.322-21.334-21.334s21.334-21.333 21.334-21.333h42.666c0 0 21.334 2.346 21.334 21.334s-21.334 21.334-21.334 21.334zM490.666 10.666h-320c0 0-21.334-1.322-21.334-21.334s21.334-21.333 21.334-21.333h320c0 0 21.334 2.346 21.334 21.334s-21.334 21.334-21.334 21.334z" />
<glyph unicode="&#xe636;" d="M21.334 309.333h469.334c0 0 21.333 2.346 21.333 21.334s-21.334 21.334-21.334 21.334h-469.334c0 0-21.334-1.344-21.334-21.334s21.334-21.334 21.334-21.334zM490.666 181.334h-469.334c0 0-21.334-1.344-21.334-21.334 0-20.010 21.334-21.334 21.334-21.334h469.334c0 0 21.334 2.346 21.334 21.334s-21.334 21.334-21.334 21.334zM490.666 10.666h-469.334c0 0-21.334-1.322-21.334-21.334s21.334-21.333 21.334-21.333h469.334c0 0 21.334 2.346 21.334 21.334s-21.334 21.334-21.334 21.334z" />
<glyph unicode="&#xe637;" d="M458.666 431.637c-15.914 0-26.944-2.090-64-30.101l-64-53.803c0 0-102.4 62.699-128 79.637-13.376 8.875-26.090 8.875-42.666 0-45.248-24.213-82.538-46.678-106.666-58.304-18.666-9.002-42.666-21.632-42.666-42.667v-312.875c0-21.312 12.203-45.76 42.666-45.526 22.912 0.512 39.36 13.163 64 29.846l64 51.2c0 0 106.603-61.483 128-73.962 12.714-7.403 26.795-8.021 42.666 0 43.456 22.016 106.666 52.63 106.666 52.63s42.666 17.13 42.666 42.666v310.058c0 32.768-19.008 51.2-42.666 51.2zM160 91.733c0 0-77.334-56-85.334-61.142-15.659-10.070-21.334-0.918-21.334 21.334v253.142c0 14.933 21.334 21.334 21.334 21.334l85.334 42.666v-277.334zM309.334 27.733l-106.666 64v277.334l106.666-64v-277.334zM458.666 91.733c0-9.813-21.334-21.334-21.334-21.334l-85.334-42.666v277.334c0 0 80.79 63.19 85.334 66.858 16.981 13.718 21.334 6.656 21.334-21.334v-258.858z" />
<glyph unicode="&#xe638;" d="M426.666 309.333h-42.666v42.667c0 70.678-57.301 128-128 128-70.678 0-128-57.322-128-128v-42.666h-42.666c-21.674 0-42.666-21.226-42.666-42.666v-234.667c0-29.952 31.85-64 64-64h298.666c32.171 0 64 32.618 64 64v234.667c0 20.501-22.144 42.666-42.666 42.666zM170.667 352c0 47.125 38.208 85.334 85.333 85.334s85.334-38.208 85.334-85.334v-42.666h-170.667v42.666zM426.666 53.334c0-33.13-10.496-42.666-42.666-42.666h-256c-32.981 0-42.666 12.16-42.666 42.666v192c0 17.024 4.117 21.334 21.334 21.334h298.666c18.197 0 21.334-3.712 21.334-21.334v-192zM298.666 160h-85.334c0 0-21.334-0.618-21.334-21.334 0-20.736 21.334-21.334 21.334-21.334h85.334c0 0 21.334 1.088 21.334 21.334s-21.334 21.334-21.334 21.334z" />
<glyph unicode="&#xe639;" d="M256 480c-19.925 0-21.334-21.334-21.334-21.334v-85.334c0 0 1.088-21.333 21.334-21.333s21.334 21.334 21.334 21.334v85.334c0 0-1.408 21.333-21.334 21.333zM256 96c-20.245 0-21.334-21.334-21.334-21.334v-85.334c0 0 1.408-21.333 21.334-21.333s21.334 21.334 21.334 21.334v85.334c0 0-1.088 21.334-21.334 21.334zM128 224c0 20.245-21.334 21.334-21.334 21.334h-85.334c0 0-21.334-1.408-21.334-21.334 0-19.947 21.334-21.334 21.334-21.334h85.334c0 0 21.334 1.088 21.334 21.334zM490.666 245.333h-85.334c0 0-21.334-1.088-21.334-21.333s21.334-21.334 21.334-21.334h85.334c0 0 21.334 1.387 21.334 21.334 0 19.925-21.334 21.334-21.334 21.334zM376.661 314.496l60.352 60.331c0 0 14.101 16.086 0 30.187s-30.166 0-30.166 0l-60.352-60.352c0 0-14.293-15.829 0-30.166 14.336-14.293 30.166 0 30.166 0zM135.339 133.504l-60.352-60.352c0 0-14.102-16.064 0-30.166s30.166 0 30.166 0l60.352 60.352c0 0 14.293 15.829 0 30.166-14.336 14.293-30.166 0-30.166 0zM105.152 405.014c0 0-16.064 14.101-30.165 0s0-30.187 0-30.187l60.352-60.331c0 0 15.829-14.293 30.166 0 14.293 14.336 0 30.166 0 30.166l-60.352 60.352zM376.661 133.504c0 0-15.829 14.293-30.166 0-14.293-14.336 0-30.166 0-30.166l60.352-60.352c0 0 16.064-14.101 30.166 0s0 30.166 0 30.166l-60.352 60.352z" />
<glyph unicode="&#xe63a;" d="M274.837 178.262c16.49-15.51 24.341-39.637 12.992-51.008-16-16-93.226-93.206-106.666-106.666-9.429-9.43-29.418 1.344-45.099 17.002-16.341 16.298-28.971 36.906-18.901 46.998l29.099 29.099c-15.254 15.274-12.032 51.968-12.032 51.968-14.891-14.912-22.549-22.55-38.4-38.4-41.834-41.834-42.304-84.992 0-128 41.578-42.262 86.912-41.088 128 0 22.101 22.101 55.168 55.19 85.334 85.334 41.579 41.579 42.88 85.099 0 128 0 0.022-12.118-12.096-34.325-34.325zM416.171 319.595c-41.622 42.325-86.954 41.152-128.085 0-22.101-22.123-55.19-55.275-85.355-85.462-41.578-41.643-42.901-85.248 0-128.192 0 0 12.118 12.118 34.346 34.389-16.49 15.531-24.384 39.68-12.992 51.072 16 16.043 93.226 93.334 106.709 106.837 9.45 9.451 29.418-1.344 45.12-17.045 16.341-16.32 28.992-36.971 18.88-47.062-3.158-3.179-19.328-19.349-29.077-29.142 16.384-16.406 12.032-52.053 12.032-52.053 14.912 14.933 22.55 22.592 38.421 38.464 41.834 41.899 42.325 85.12 0 128.192z" />
<glyph unicode="&#xe63b;" d="M395.029 288h-64c-21.995 0-24.149-1.558-21.334 21.334 2.197 17.792 19.606 112.085 21.334 128 2.774 22.933-2.709 42.666-21.334 42.666-12.672 0-30.272-0.49-42.666-21.333-13.611-22.87-166.080-247.36-170.667-256s1.451-21.334 21.334-21.334h64c21.099 0 25.28 1.43 21.334-21.334-2.987-17.238-17.322-127.424-21.334-149.333-3.733-20.416-0.192-42.667 21.334-42.667 13.568 0 29.994 0.576 42.666 21.334 15.382 25.173 167.958 269.546 170.666 277.334s-1.472 21.334-21.334 21.334zM224.363 32c0 0 18.026 124.48 21.334 149.333 6.422 48.341 11.435 42.666-42.666 42.666-33.046 0-42.666 0-42.666 0l128 192c0 0-16.832-94.848-21.334-128-6.336-46.592-9.088-42.666 42.666-42.666 36.885 0 42.666 0 42.666 0l-128-213.333z" />
<glyph unicode="&#xe63c;" d="M470.123 411.35c-16.022 16.042-32.106 15.402-45.248 15.082-13.163-0.298-286.144-44.779-346.944-105.579-57.194-57.195-69.334-184.406 0.811-270.72l-46.059-46.080c0 0-13.27-16.896 0-30.166s30.166 0 30.166 0l46.058 46.058c86.272-70.186 213.12-58.411 270.72-0.81 61.226 61.248 105.622 339.69 105.579 346.966s0.96 29.226-15.082 45.248zM289.11 260.501l30.166 30.166-23.488 70.464c44.714 10.112 86.998 17.344 114.134 20.182l-211.306-211.307-48.768 146.262c31.296 14.059 73.408 27.008 115.904 37.675l23.36-93.44zM108.096 290.667c2.176 2.176 5.056 4.309 7.915 6.464l52.438-157.29-59.050-59.050c-44.864 61.056-49.024 162.155-1.302 209.877zM349.44 49.322c-48.128-48.149-148.886-43.627-209.877 1.301l59.072 59.072 157.291-52.459c-2.154-2.858-4.33-5.76-6.486-7.914zM375.232 91.008l-146.432 48.832 90.496 90.496 94.208-23.552c-10.837-42.454-24.022-84.502-38.272-115.776zM420.779 236.736l-71.317 23.765 91.478 91.499c-2.496-27.178-9.771-69.995-20.16-115.264z" />
<glyph unicode="&#xe63d;" d="M42.666 224v170.667c0 30.997 10.154 42.666 42.666 42.666 33.066 0 139.712-0.256 170.667 0 31.040 0.298 42.666-10.582 42.666-42.666v-64h42.666v85.333c0 36.715-29.12 64-64 64h-213.333c-35.2 0-64-30.037-64-64v-213.333c0-36.672 28.8-64 64-64h85.333v42.666h-64c-31.872 0-42.666 11.050-42.666 42.666zM448 309.333h-213.333c-35.2 0-64-30.037-64-64v-213.333c0-36.672 28.8-64 64-64h213.333c36.267 0 64 28.587 64 64v213.333c0 36.715-29.12 64-64 64zM469.334 53.334c0-31.829-10.283-42.666-42.666-42.666h-170.667c-31.872 0-42.666 11.050-42.666 42.666v170.667c0 30.998 10.155 42.667 42.666 42.667 33.067 0 139.712-0.256 170.667 0 31.040 0.298 42.666-10.582 42.666-42.666v-170.666z" />
<glyph unicode="&#xe63e;" d="M469.334 96v213.333c0 32.064-31.872 64-64 64h-298.666c-32.768 0-64-31.808-64-64v-213.333c-21.248 0-42.666-21.909-42.666-42.666v-42.666c0-21.546 22.102-42.666 42.666-42.666h426.666c22.080 0 42.666 22.101 42.666 42.666v42.666c0 19.52-22.166 42.666-42.666 42.666zM85.334 288c0 30.592 12.758 42.666 42.666 42.666h256c31.574 0 42.666-12.651 42.666-42.666v-192h-341.334v192zM448 10.666h-384c-18.794 0-21.334 2.688-21.334 21.334 0 18.624 2.432 21.334 21.334 21.334h384c17.834 0 21.334-1.728 21.334-21.334s-3.798-21.334-21.334-21.334zM256 309.333c0 0-21.334-1.088-21.334-21.333s21.334-21.334 21.334-21.334 21.334 2.368 21.334 21.334-21.334 21.334-21.334 21.334z" />
<glyph unicode="&#xe63f;" d="M341.334 474.56h-170.667c-32.341 0-64-33.216-64-64v-426.666c0-9.877 13.611-29.056 42.667 0s106.666 106.666 106.666 106.666 85.334-85.334 106.666-106.666c31.786-30.144 42.666-9.92 42.666 0v426.666c0 32.469-31.19 64-64 64zM362.666 47.872c0 0-56.171 56.149-64 64-7.829 7.829-21.995 21.334-42.666 21.334s-33.75-12.416-42.666-21.334-64-64-64-64 0 311.445 0 341.334 10.923 42.666 42.666 42.666h128c32.789 0 42.666-11.541 42.666-42.666s0-341.334 0-341.334z" />
<glyph unicode="&#xe640;" d="M490.666 117.334h-236.587c-10.176 60.502-62.678 106.666-126.080 106.666-70.677 0-128-57.322-128-128s57.322-128 128-128c63.402 0 115.904 46.166 126.080 106.666h108.587v-21.334c0 0 0.022-21.334 21.334-21.334s21.334 21.334 21.334 21.334v21.334h42.666v-42.666c0 0 0.022-21.334 21.334-21.334s21.334 21.334 21.334 21.334v42.666c0 0 21.333 0.576 21.333 21.334s-21.334 21.334-21.334 21.334zM128 10.666c-47.126 0-85.334 38.208-85.334 85.334s38.208 85.334 85.334 85.334 85.334-38.208 85.334-85.334-38.208-85.334-85.334-85.334z" />
<glyph unicode="&#xe641;" d="M256 480c-141.376 0-256-114.624-256-256s114.624-256 256-256 256 114.624 256 256-114.624 256-256 256zM256 10.666c-117.824 0-213.333 95.531-213.333 213.334s95.51 213.333 213.333 213.333 213.333-95.53 213.333-213.333-95.51-213.333-213.333-213.333zM256 330.667c11.798 0 21.334 9.536 21.334 21.333s-9.536 21.334-21.334 21.334-21.334-9.536-21.334-21.334 9.536-21.333 21.334-21.333zM256 288l0.043-0.022c0.789 0.022-0.043 0.022-0.043 0.022zM277.334 117.334v128c0 0 0.406 11.243 0 21.334 0.086 16.661-20.992 21.269-21.291 21.312-1.109 0-5.611 0-21.376 0.022-13.994-4.906-21.674-14.442-21.333-21.334 0.32-6.656 3.328-15.232 21.334-21.334 0 0 21.334-0.512 0 0 0 0-2.006-140.672 0-149.334s21.334-21.334 21.334-21.334h21.334c0 0 21.995 4.672 21.334 21.334s-20.010 20.672-21.334 21.334z" />
<glyph unicode="&#xe642;" d="M448 394.666h-384c-32.746 0-64-31.85-64-64v-298.666c0-31.914 31.274-64 64-64h384c32.043 0 64 31.552 64 64v298.666c0 32.256-32.235 64-64 64zM85.334 10.666c-15.531 0-25.728 2.731-32.342 8.661 28.011 23.51 104.192 87.36 117.674 98.005 18.923 14.912 26.006 15.829 42.666 0 6.912-6.592 28.886-26.538 42.666-42.666 14.699-17.195 24.363-19.67 42.666 0 36.565 39.211 32.086 39.382 64 0 8.192-10.134 31.659-42.197 47.786-64h-325.12zM469.334 53.334c0-14.123-2.176-23.851-7.082-30.55-34.986 41.13-90.88 106.666-99.584 115.882-20.352 21.504-43.627 21.226-64 0-9.771-10.176-21.334-21.334-21.334-21.334s-31.51 31.744-42.666 42.666c-24.042 23.552-47.254 31.339-85.334 0-10.709-8.832-73.152-60.885-106.666-88.875v238.208c0 31.466 12.224 42.666 42.666 42.666h341.334c31.36 0 42.666-11.67 42.666-42.666v-256zM362.666 309.333c-35.349 0-64-28.672-64-64s28.651-64 64-64 64 28.672 64 64-28.651 64-64 64zM362.666 224c-11.798 0-21.334 9.536-21.334 21.334s9.536 21.334 21.334 21.334 21.334-9.536 21.334-21.334-9.536-21.334-21.334-21.334z" />
<glyph unicode="&#xe643;" d="M469.334 266.667c-12.16 12.245-26.986 27.093-42.666 42.794v85.206c0 0-1.536 21.333-21.334 21.333s-21.334-21.333-21.334-21.333v-42.518c-41.579 41.536-79.616 79.466-85.334 85.184-13.93 13.93-22.592 21.334-42.666 21.334s-26.006-4.672-42.666-21.334l-170.667-170.667c-21.782-21.781-21.334-31.808-21.334-42.666v-213.333c0-21.034 21.654-42.666 42.666-42.666h384c21.803 0 42.666 21.376 42.666 42.666v213.333c0 9.408 0.832 20.352-21.334 42.667zM298.666 10.666h-85.334c0 0 0 107.968 0 128 0 12.48 3.328 21.163 21.334 21.334 7.104 0.064 35.52 0 42.666 0 18.944 0 21.334-3.627 21.334-21.334s0-128 0-128zM448 32c0-15.786-2.709-21.334-21.334-21.334h-85.334c0 0 0 129.579 0 149.334s-21.226 42.666-42.666 42.666h-85.334c-20.075 0-42.666-21.418-42.666-42.666s0-149.333 0-149.333h-85.334c-19.157 0-21.334 3.584-21.334 21.334v170.666c0 17.173 4.309 25.621 21.334 42.666 18.198 18.176 149.334 149.334 149.334 149.334 24.192 24.17 18.070 24.597 42.666 0l149.333-149.334c15.702-15.702 21.334-23.424 21.334-42.666v-170.667z" />
<glyph unicode="&#xe644;" d="M437.014 405.014c-99.99 99.989-262.058 99.989-362.048 0s-99.99-262.058 0-362.048 262.058-99.99 362.048 0 99.99 262.080 0 362.048zM373.568 401.877l-62.592-62.57c-34.645 16.384-75.072 16.32-109.781-0.192l-62.848 62.869c71.082 47.104 164.118 46.976 235.221-0.106zM195.669 163.67c-33.322 33.322-33.322 87.36 0 120.661 33.322 33.322 87.36 33.322 120.662 0 33.322-33.322 33.322-87.36 0-120.661-33.301-33.344-87.36-33.344-120.661 0zM78.016 341.654l62.848-62.848c-16.512-34.688-16.555-75.136-0.192-109.803l-62.571-62.57c-47.062 71.104-47.19 164.139-0.085 235.221zM138.453 46.101l62.571 62.57c34.645-16.384 75.072-16.32 109.781 0.192l62.87-62.848c-71.082-47.125-164.138-46.976-235.221 0.086zM434.005 106.325l-62.848 62.87c16.49 34.709 16.555 75.115 0.192 109.781l62.57 62.571c47.040-71.083 47.19-164.139 0.086-235.221z" />
<glyph unicode="&#xe645;" d="M256 480c-141.376 0-256-114.624-256-256 0-141.398 114.624-256 256-256 141.398 0 256 114.603 256 256 0 141.376-114.603 256-256 256zM320 427.541c66.304-20.842 118.57-73.238 139.413-139.541h-92.672c-11.243 19.35-27.37 35.52-46.741 46.72v92.821zM234.667 436.267c7.018 0.683 14.144 1.066 21.333 1.066s14.315-0.384 21.334-1.066v-86.186c-6.954 1.173-14.058 1.92-21.334 1.92s-14.379-0.746-21.334-1.92v86.186zM192 427.541v-92.8c-19.37-11.221-35.499-27.392-46.742-46.741h-92.694c20.864 66.304 73.109 118.698 139.435 139.542zM43.84 245.333h86.144c-1.173-6.954-1.984-14.037-1.984-21.333s0.81-14.378 1.984-21.334h-86.144c-0.704 7.019-1.173 14.123-1.173 21.334s0.469 14.293 1.173 21.334zM192 20.459c-66.326 20.843-118.57 73.238-139.413 139.541h92.672c11.243-19.349 27.37-35.498 46.742-46.72v-92.822zM277.334 11.755c-7.019-0.704-14.144-1.088-21.334-1.088s-14.315 0.384-21.334 1.088v86.166c6.954-1.173 14.059-1.92 21.334-1.92s14.378 0.747 21.334 1.92v-86.166zM256 138.666c-47.125 0-85.334 38.208-85.334 85.334s38.208 85.334 85.334 85.334 85.334-38.208 85.334-85.334-38.208-85.334-85.334-85.334zM320 20.459v92.822c19.37 11.221 35.498 27.37 46.741 46.72h92.672c-20.842-66.304-73.11-118.698-139.413-139.542zM382.016 202.666c1.173 6.954 1.984 14.038 1.984 21.334s-0.81 14.379-1.984 21.334h86.144c0.704-7.040 1.173-14.123 1.173-21.334s-0.469-14.315-1.173-21.334h-86.144z" />
<glyph unicode="&#xe646;" d="M256 373.334c-105.387 0-213.333-87.019-213.333-192v-170.666c0-21.546 22.784-42.666 42.666-42.666h42.666c19.712 0 42.666 21.248 42.666 42.666v106.666c0 22.208-21.525 42.666-42.666 42.666h-42.666c0 96.171 73.963 170.667 170.667 170.667 96.64 0 170.667-75.52 170.667-170.667 0-0.235-27.435 0-42.666 0-20.202 0-42.666-22.016-42.666-42.666v-106.666c0-21.226 21.781-42.666 42.666-42.666s20.8 0 42.666 0 42.666 20.864 42.666 42.666v170.667c0 106.134-107.968 192-213.333 192zM106.666 117.334c16.213 0 21.334-2.56 21.334-21.334v-64c0-16.938-2.517-21.334-21.334-21.334s-21.334 2.432-21.334 21.334c0 18.88 0 85.334 0 85.334s5.12 0 21.334 0zM426.666 32c0-18.901-2.517-21.334-21.334-21.334-18.794 0-21.334 4.394-21.334 21.334v64c0 18.774 5.12 21.334 21.334 21.334s21.334 0 21.334 0 0-66.454 0-85.334z" />
<glyph unicode="&#xe647;" d="M447.829 425.493c-7.168 11.84-19.029 10.006-31.616 3.968-1.984-0.938-170.88-98.794-170.88-98.794h-192c-22.954 0-42.666-19.968-42.666-42.667v-128c0-21.12 21.91-42.666 42.666-42.666h21.334c0 0 0-86.464 0-106.666s21.93-42.666 42.666-42.666h42.666c18.88 0 42.666 21.099 42.666 42.666s0 106.666 0 106.666h42.666l170.88-98.368c10.454-6.293 23.978-8.298 32.256 4.31 18.731 28.459 52.864 94.699 52.864 199.040 0 101.696-35.648 173.654-53.504 203.178zM53.334 181.334v85.334c0 17.92 1.706 21.334 21.334 21.334h21.334v-128h-21.334c-18.666 0-21.334 3.243-21.334 21.334zM160 32c0-18.923-2.752-21.334-21.334-21.334s-21.334 3.050-21.334 21.334 0 85.334 0 85.334h42.666c0 0 0-66.411 0-85.334zM224 160c0 0-44.544 0-85.334 0v128c40.832 0 85.334 0 85.334 0v-128zM423.723 68.522l-157.056 91.478v128l157.056 87.914c0 0 34.944-47.232 34.944-153.6 0-106.389-34.944-153.792-34.944-153.792z" />
<glyph unicode="&#xe648;" d="M448 416c-35.349 0-64-28.65-64-64 0-19.968 9.344-37.568 23.637-49.302l-37.846-79.424c-2.368 0.277-4.694 0.726-7.125 0.726-23.68 0-44.118-13.014-55.19-32.128l-53.312 25.387c-6.613 28.288-31.872 49.408-62.166 49.408-35.35 0-64-28.672-64-64 0-15.552 5.781-29.675 15.040-40.746l-51.669-72.278c-8.32 3.968-17.536 6.358-27.37 6.358-35.349 0-64-28.672-64-64s28.651-64 64-64 64 28.672 64 64c0 10.219-2.624 19.798-6.912 28.373 2.496 1.942 4.118 3.606 4.118 3.606l54.293 75.947c4.054-0.81 8.214-1.259 12.501-1.259 24.554 0 45.611 13.974 56.341 34.24l51.498-24.534c5.483-29.76 31.445-52.373 62.827-52.373 35.349 0 64 28.672 64 64 0 17.514-7.082 33.365-18.496 44.95l36.565 76.672c0 0 1.024 2.709 1.558 6.549 0.576-0.022 1.13-0.171 1.707-0.171 35.349 0 64 28.672 64 64 0 35.349-28.651 64-64 64zM64 0c-17.664 0-32 14.336-32 32s14.336 32 32 32 32-14.336 32-32-14.336-32-32-32zM192 170.666c-0.597 0-1.152 0.149-1.728 0.171-1.131 4.416-3.584 8.747-8.875 11.798-5.611 3.243-10.944 3.094-15.488 1.6-3.69 5.226-5.91 11.563-5.91 18.432 0 17.664 14.336 32 32 32 12.118 0 22.571-6.827 27.989-16.789-1.28-1.216-2.475-2.603-3.499-4.373-6.080-10.538-0.363-20.032 3.968-25.173-5.269-10.432-15.978-17.664-28.459-17.664zM362.666 128c-11.306 0-21.205 5.909-26.901 14.762 2.774 1.43 5.334 3.478 7.211 6.72 7.104 12.31-3.712 24.918-6.912 28.245 5.738 8.598 15.488 14.272 26.603 14.272 1.173 0 2.283-0.235 3.413-0.363 1.43-2.837 3.541-5.44 6.827-7.36 4.267-2.454 8.534-2.624 12.502-1.834 5.717-5.76 9.259-13.696 9.259-22.442 0-17.664-14.336-32-32-32zM448 320c-17.664 0-32 14.336-32 32s14.336 32 32 32 32-14.336 32-32-14.336-32-32-32z" />
<glyph unicode="&#xe649;" d="M512 224c0 133.76-102.635 243.413-233.408 254.848-0.81 0.704-1.387 1.152-1.387 1.152l-0.512-1.046c-6.848 0.555-13.717 1.046-20.694 1.046-7.018 0-13.93-0.49-20.821-1.046l-0.512 1.046c0 0-0.554-0.448-1.387-1.152-130.709-11.52-233.28-121.13-233.28-254.848s102.57-243.328 233.28-254.848c0.832-0.704 1.387-1.152 1.387-1.152l0.512 1.046c6.891-0.555 13.803-1.046 20.822-1.046 6.976 0 13.846 0.49 20.693 1.046l0.512-1.046c0 0 0.555 0.448 1.365 1.152 130.795 11.456 233.43 121.088 233.43 254.848zM468.245 245.333h-106.197c-3.072 87.509-24.149 146.24-44.693 182.955 81.344-24.406 142.25-95.958 150.89-182.955zM256 437.334c0 0 57.408-58.091 63.104-192h-126.549c5.718 133.91 63.446 192 63.446 192zM194.219 428.16c-20.63-36.736-41.77-95.424-44.864-182.826h-105.621c8.64 86.848 69.376 158.293 150.486 182.826zM43.733 202.666h105.621c3.072-87.402 24.234-146.090 44.843-182.805-81.088 24.512-141.824 95.957-150.464 182.805zM192.554 202.666h126.549c-5.696-133.91-63.104-192-63.104-192s-57.728 58.091-63.446 192zM317.376 19.712c20.544 36.736 41.621 95.466 44.693 182.954h106.197c-8.661-86.998-69.568-158.57-150.89-182.954z" />
<glyph unicode="&#xe64a;" d="M512 96c0 0-0.426 1.771-1.13 4.779-1.046 7.936-2.88 15.594-5.44 22.933-15.574 66.026-53.909 228.885-57.43 249.621-6.229 36.651-28.288 64-64 64-22.87 0-42.666 0-42.666 0s-21.334-2.645-21.334-21.333 21.334-21.334 21.334-21.334 2.709 0 21.334 0c39.659 0 40.426-4.63 42.666-21.334 1.322-9.962 23.851-106.709 41.792-183.168-15.786 7.936-33.579 12.502-52.459 12.502-61.184 0-111.402-46.87-116.8-106.666h-43.755c-5.398 59.798-55.594 106.666-116.8 106.666-18.88 0-36.672-4.565-52.459-12.502 17.963 76.459 40.469 173.206 41.814 183.168 2.24 16.704 2.987 21.334 42.666 21.334 18.624 0 21.334 0 21.334 0s21.334 2.645 21.334 21.334-21.334 21.333-21.334 21.333-19.798 0-42.666 0c-35.712 0-57.77-27.349-64-64-3.52-20.736-41.834-183.573-57.429-249.6-2.56-7.36-4.394-15.019-5.418-22.954-0.726-3.008-1.152-4.779-1.152-4.779s0-1.387 0.362-3.456c-0.149-2.389-0.362-4.779-0.362-7.211 0-64.789 52.544-117.334 117.334-117.334 53.696 0 98.859 36.096 112.811 85.334h51.733c13.93-49.238 59.115-85.334 112.79-85.334 64.789 0 117.333 52.544 117.333 117.334 0 2.432-0.214 4.822-0.363 7.211 0.363 2.070 0.363 3.456 0.363 3.456zM117.334 10.666c-41.258 0-74.666 33.43-74.666 74.666s33.408 74.666 74.666 74.666 74.666-33.43 74.666-74.666-33.408-74.666-74.666-74.666zM394.666 10.666c-41.258 0-74.666 33.43-74.666 74.666s33.408 74.666 74.666 74.666 74.666-33.43 74.666-74.666-33.408-74.666-74.666-74.666z" />
<glyph unicode="&#xe64b;" d="M490.624 373.334c15.424 15.424 6.123 42.666-21.334 42.666h-117.334l32 42.666-42.666 21.334-42.666-64h-256c-20.928 0-39.467-24.534-21.334-42.666 22.464-22.464 213.334-170.667 213.334-170.667v-192h-64c0 0-21.334-2.070-21.334-21.334 0-19.286 21.334-21.333 21.334-21.333h170.667c0 0 21.334 3.648 21.334 21.334s-21.334 21.334-21.334 21.334h-64v192c0 0 197.909 155.243 213.333 170.667zM255.978 245.333l-170.667 128h341.333l-170.667-128z" />
<glyph unicode="&#xe64c;" d="M448 352h-21.334c18.219 28.65 14.528 63.382 0 85.334s-43.968 29.952-85.334 21.334-64-42.667-64-42.667-20.352-23.552-21.184-64h-0.149c0 44.608-21.334 64-21.334 64s-23.381 33.494-64 42.667-71.061 1.962-85.334-21.334c-14.251-23.296-17.92-54.934 0-85.334h-21.334c-21.611 0-42.666-20.053-42.666-42.666 0-22.635 0-21.632 0-42.666s20.117-42.666 42.666-42.666c0 0 0-159.744 0-192s30.72-64 64-64h256c32.576 0 64 31.082 64 64s0 192 0 192c23.339 0 42.666 20.16 42.666 42.666s0 21.248 0 42.666-20.502 42.666-42.666 42.666zM320 394.666c0 0 45.632 39.339 64 21.334 13.717-13.44 6.954-34.389 0-42.666-16.341-19.435-70.656-38.55-85.334-21.334-13.611 15.936 21.334 42.666 21.334 42.666zM128 416c18.24 18.901 64-21.334 64-21.334s34.709-25.749 21.334-42.666c-14.422-18.262-69.291 0.683-85.334 21.334-6.826 8.789-10.219 32.106 0 42.666zM234.667 10.666h-85.333c-33.216 0-42.666 9.622-42.666 42.666v42.666h128v-85.334zM234.667 138.666h-128c0 43.221 0 85.334 0 85.334h128v-85.334zM405.334 53.334c0-32.832-10.411-42.666-42.666-42.666h-85.334v85.334h128v-42.666zM405.334 138.666h-128v85.334h128c0 0 0-42.134 0-85.334zM426.666 266.667h-341.334c-17.536 0-21.334 3.84-21.334 21.333s4.352 21.334 21.334 21.334h341.334c17.771 0 21.334-4.757 21.334-21.334 0-16.597-4.714-21.334-21.334-21.334z" />
<glyph unicode="&#xe64d;" d="M256 245.333l-64 64c-28.906 28.907-42.666 28.182-42.666 0v-170.666c0-25.792 12.565-30.101 42.666 0 15.488 15.466 47.573 47.574 64 64 24.661 24.661 24.555 18.112 0 42.666zM256 480c-141.376 0-256-114.624-256-256 0-141.398 114.624-256 256-256 141.398 0 256 114.603 256 256 0 141.376-114.603 256-256 256zM256 10.666c-117.803 0-213.333 95.531-213.333 213.334s95.53 213.333 213.333 213.333 213.333-95.53 213.333-213.333-95.531-213.333-213.333-213.333zM384 245.333l-64 64c-28.906 28.907-42.666 28.182-42.666 0v-170.666c0-25.792 12.565-30.101 42.666 0 15.488 15.466 47.574 47.574 64 64 24.661 24.661 24.555 18.112 0 42.666z" />
<glyph unicode="&#xe64e;" d="M448 288h-171.094c0 31.403-31.595 64-63.573 64h-149.333c-31.147 0-64-32.448-64-64v-256c0-32.918 31.104-64 64-64h384c30.528 0 64 31.296 64 64v192c0 30.422-33.984 64-64 64zM469.334 53.334c0-33.536-11.563-42.666-42.666-42.666h-341.334c-32 0-42.666 12.288-42.666 42.666v213.334c0 31.744 11.498 42.666 42.666 42.666h106.666c31.808 0 42.666-11.755 42.666-42.666v-21.334c0 0 160.234 0 192 0s42.666-12.075 42.666-42.666v-149.333z" />
<glyph unicode="&#xe64f;" d="M469.248 437.376c0 0-406.187-161.578-427.52-171.050-28.309-12.566-28.694-55.723 0-64 28.16-8.106 170.667-42.666 170.667-42.666 7.018-1.856 19.456-14.848 21.333-21.334 0 0 37.589-130.752 42.666-149.333 7.68-27.99 53.995-27.99 64 0 5.696 15.851 150.166 427.050 150.166 427.050 4.864 13.099-7.723 25.75-21.312 21.334zM67.35 236.48l346.453 141.162-170.667-183.488-175.786 42.326zM310.57 14.613l-46.954 157.867 171.52 183.829-124.565-341.696z" />
<glyph unicode="&#xe650;" d="M320 352c-47.659 0-85.334 42.666-149.333 42.666-25.109 0-46.742-6.613-64-14.57v14.57c0 0 1.174 21.334-21.334 21.334s-21.334-21.334-21.334-21.334v-405.334c0 0 0.384-21.333 21.334-21.333s21.334 21.334 21.334 21.334v133.291c18.112 8.598 40.278 16.043 64 16.043 60.331 0 94.122-42.666 149.333-42.666s128 42.666 128 42.666v256c0 0-80.341-42.666-128-42.666zM405.334 160c0 0-52.459-21.334-85.334-21.334-42.752 0-94.698 42.666-149.333 42.666-37.93 0-64-21.334-64-21.334v170.666c0 0 8.32 21.334 64 21.334 55.702 0 90.475-42.666 149.333-42.666 39.339 0 85.334 21.334 85.334 21.334v-170.666z" />
<glyph unicode="&#xe651;" d="M266.582 181.334h-21.334c0 0-21.334 0.81-21.334-21.334s21.334-21.334 21.334-21.334h21.334c0 0 21.334 1.514 21.334 21.334s-21.334 21.334-21.334 21.334zM266.582 96h-21.334c0 0-21.334 0.81-21.334-21.334s21.334-21.334 21.334-21.334h21.334c0 0 21.334 1.514 21.334 21.334s-21.334 21.334-21.334 21.334zM138.582 181.334h-21.334c0 0-21.334 0.81-21.334-21.334s21.334-21.334 21.334-21.334h21.334c0 0 21.334 1.514 21.334 21.334s-21.334 21.334-21.334 21.334zM138.582 96h-21.334c0 0-21.334 0.81-21.334-21.334s21.334-21.334 21.334-21.334h21.334c0 0 21.334 1.514 21.334 21.334s-21.334 21.334-21.334 21.334zM458.582 266.667c-34.794 20.736-88.618 52.438-106.666 64-25.962 16.618-42.666-3.392-42.666-21.334s0-42.666 0-42.666-89.664 52.245-106.666 64c-26.838 18.538-42.666-4.565-42.666-21.334s0-42.666 0-42.666-90.347 53.034-106.666 64c-26.112 17.536-42.666-0.512-42.666-21.334 0-20.843 0-341.334 0-341.334h490.666c0 0 0 187.328 0 234.667 0 39.19 5.163 35.499-42.666 64zM458.582 10.666h-405.334v264.534c0 0 58.475-35.286 85.334-51.2 26.838-15.894 64-34.645 64 0s0 51.2 0 51.2 63.765-38.464 85.334-51.2c22.080-13.034 64-34.496 64 0s0 51.2 0 51.2 67.798-40.683 85.334-51.2c17.514-10.517 21.334-10.837 21.334-21.334s0-192 0-192zM394.582 96h-21.334c0 0-21.334 0.81-21.334-21.334s21.334-21.334 21.334-21.334h21.334c0 0 21.334 1.514 21.334 21.334s-21.334 21.334-21.334 21.334zM394.582 181.334h-21.334c0 0-21.334 0.81-21.334-21.334s21.334-21.334 21.334-21.334h21.334c0 0 21.334 1.514 21.334 21.334s-21.334 21.334-21.334 21.334z" />
<glyph unicode="&#xe652;" d="M256 117.334c148.714 0 224.832 98.816 234.667 106.666 15.424 12.31 21.333 29.162 21.333 42.666 0 13.483-5.163 30.016-21.334 42.666-9.813 7.659-85.974 106.666-234.667 106.666-149.035 0-224.917-96.363-234.667-106.666-10.838-11.477-21.334-22.25-21.334-42.666s11.178-32.384 21.334-42.666c9.536-9.707 83.669-106.666 234.667-106.666zM85.334 309.333c7.466 9.643 85.376 64 170.666 64s166.379-60.8 170.667-64 42.666-42.666 42.666-42.666-39.616-39.019-42.666-42.666-83.968-64-170.667-64-166.208 61.546-170.667 64-42.666 42.666-42.666 42.666 35.2 33.024 42.666 42.666zM256 181.334c47.125 0 85.334 38.208 85.334 85.334s-38.208 85.334-85.334 85.334-85.334-38.208-85.334-85.334 38.208-85.334 85.334-85.334zM256 309.333c23.552 0 42.666-19.114 42.666-42.666s-19.115-42.666-42.666-42.666-42.666 19.114-42.666 42.666 19.114 42.666 42.666 42.666zM477.142 103.808c0 0-12.63 17.322-29.142 7.808-16.512-9.536-7.808-29.142-7.808-29.142l21.334-36.95c0 0 12.181-17.579 29.142-7.808 16.96 9.792 7.808 29.142 7.808 29.142l-21.334 36.95zM256 53.334c-19.094 0-21.334-21.334-21.334-21.334v-42.666c0 0 1.77-21.334 21.334-21.334s21.334 21.334 21.334 21.334v42.666c0 0-2.24 21.334-21.334 21.334zM377.75 58.134c0 0-7.702 20.010-26.134 15.082s-15.082-26.134-15.082-26.134l11.050-41.216c0 0 7.232-20.139 26.134-15.082 18.923 5.056 15.082 26.134 15.082 26.134l-11.050 41.216zM160.384 73.216c-18.41 4.928-26.133-15.082-26.133-15.082l-11.050-41.216c0 0-3.84-21.056 15.083-26.134 18.901-5.056 26.133 15.082 26.133 15.082l11.050 41.216c0 0 3.328 21.184-15.083 26.134zM85.334 111.616c-16.512 9.514-29.142-7.808-29.142-7.808l-21.334-36.95c0 0-9.152-19.349 7.808-29.142 16.96-9.771 29.141 7.808 29.141 7.808l21.334 36.95c0 0 8.704 19.606-7.808 29.142z" />
<glyph unicode="&#xe653;" d="M448 369.408v46.592c0 0-1.813 21.334-21.334 21.334s-21.334-21.334-21.334-21.334v-46.592c-24.81-8.811-42.666-32.256-42.666-60.075s17.856-51.264 42.666-60.075v-259.925c0 0 0.192-21.334 21.334-21.334s21.334 21.334 21.334 21.334v259.925c24.81 8.832 42.666 32.278 42.666 60.075 0 27.819-17.856 51.264-42.666 60.075zM426.666 288c-11.776 0-21.334 9.536-21.334 21.334 0 11.776 9.558 21.334 21.334 21.334 11.798 0 21.334-9.558 21.334-21.334 0-11.798-9.536-21.334-21.334-21.334zM106.666 156.075v259.925c0 0-1.814 21.334-21.334 21.334s-21.334-21.334-21.334-21.334v-259.925c-24.811-8.81-42.666-32.234-42.666-60.075s17.856-51.264 42.666-60.075v-46.592c0 0 0.192-21.334 21.334-21.334s21.334 21.334 21.334 21.334v46.592c24.811 8.81 42.666 32.234 42.666 60.075s-17.856 51.264-42.666 60.075zM85.334 74.666c-11.797 0-21.334 9.536-21.334 21.334 0 11.776 9.536 21.334 21.334 21.334s21.334-9.558 21.334-21.334c0-11.798-9.536-21.334-21.334-21.334zM277.334 262.741v153.259c0 0-1.813 21.334-21.334 21.334s-21.334-21.334-21.334-21.334v-153.259c-24.81-8.81-42.666-32.256-42.666-60.074 0-27.84 17.856-51.264 42.666-60.075v-153.258c0 0 0.192-21.334 21.334-21.334s21.334 21.334 21.334 21.334v153.259c24.81 8.81 42.666 32.256 42.666 60.075 0 27.819-17.856 51.264-42.666 60.075zM256 181.334c-11.776 0-21.334 9.536-21.334 21.334s9.558 21.334 21.334 21.334c11.798 0 21.334-9.536 21.334-21.334s-9.536-21.334-21.334-21.334z" />
<glyph unicode="&#xe654;" d="M448 309.333h-384c-32.746 0-64-31.829-64-64v-213.333c0-31.914 31.274-64 64-64h384c32.043 0 64 31.552 64 64v213.333c0 32.256-32.235 64-64 64zM423.104 266.667l-124.438-106.667c0 0-27.349-21.995-42.666-21.334-16.619 0.704-42.666 21.334-42.666 21.334l-124.438 106.666h334.208zM469.334 53.334c0-32.426-10.454-42.666-42.666-42.666h-341.334c-33.045 0-42.666 11.755-42.666 42.666v170.667c0 8.64 1.024 15.616 2.986 21.376l146.346-128.042c0 0 21.718-21.334 64-21.334 41.792 0 64 21.334 64 21.334l146.389 128.085c1.942-5.803 2.944-12.779 2.944-21.418v-170.667z" />
<glyph unicode="&#xe655;" d="M479.51 299.158l-52.842 52.842v85.334c0 20.672-22.25 42.666-42.666 42.666h-256c-20.694 0-42.666-22.272-42.666-42.666v-85.334l-52.288-52.288c-19.008-11.818-33.045-32.896-33.045-54.379v-213.333c0-31.914 31.296-64 64-64h384c32.043 0 64 31.552 64 64v213.333c0 21.162-13.974 41.941-32.49 53.824zM426.666 288l21.334-21.334h-21.334v21.334zM128 416c0 18.645 2.219 21.334 21.334 21.334h213.334c19.094 0 21.334-2.688 21.334-21.334v-182.848l-85.334-73.152c0 0-27.349-21.995-42.666-21.334-16.619 0.704-42.666 21.334-42.666 21.334l-85.334 73.152v182.848zM85.334 288v-21.334h-21.334l21.334 21.334zM469.334 53.334c0-32.426-10.454-42.666-42.666-42.666h-341.334c-33.045 0-42.666 11.755-42.666 42.666v170.667c0 8.619 1.024 15.595 2.986 21.376l146.346-128.042c0 0 21.718-21.334 64-21.334 41.792 0 64 21.334 64 21.334l146.389 128.107c1.942-5.824 2.944-12.821 2.944-21.44v-170.667zM341.334 266.667c0 18.41-21.334 21.333-21.334 21.333h-128c0 0-21.334-2.731-21.334-21.334 0-18.582 21.334-21.334 21.334-21.334h128c0 0 21.334 2.923 21.334 21.334zM192 330.667h128c0 0 21.334 2.923 21.334 21.333s-21.334 21.334-21.334 21.334h-128c0 0-21.334-2.731-21.334-21.334s21.334-21.333 21.334-21.333z" />
<glyph unicode="&#xe656;" d="M148.438 330.667h128c0 0 21.334 2.602 21.334 21.333s-21.334 21.334-21.334 21.334h-128c0 0-21.334-0.384-21.334-21.334s21.334-21.333 21.334-21.333zM404.438 394.666h-21.334v21.334c0 32.235-32.789 64-64 64h-213.333c-32.406 0-64-32.576-64-64v-298.666c0-30.699 31.701-64 64-64h21.334v-21.334c0-30.699 31.701-64 64-64h213.334c31.829 0 64 32.171 64 64v298.666c0 32.234-32.789 64-64 64zM127.104 96c-31.254 0-42.666 11.008-42.666 42.666v256c0 33.088 11.243 42.666 42.666 42.666h170.667c31.616 0 42.666-11.456 42.666-42.666v-256c0-32.086-10.966-42.666-42.666-42.666h-170.667zM425.771 53.334c0-32.086-10.966-42.666-42.666-42.666h-170.667c-31.254 0-42.667 11.008-42.667 42.666h149.334c31.829 0 64 32.171 64 64v234.666c31.616 0 42.666-11.456 42.666-42.666v-256zM148.438 245.333h128c0 0 21.334 2.602 21.334 21.333s-21.334 21.334-21.334 21.334h-128c0 0-21.334-0.384-21.334-21.334s21.334-21.334 21.334-21.334zM276.438 202.666h-128c0 0-21.334-0.384-21.334-21.334s21.334-21.334 21.334-21.334h128c0 0 21.334 2.603 21.334 21.334s-21.334 21.334-21.334 21.334z" />
<glyph unicode="&#xe657;" d="M469.334 96c0 0 0-11.029 0-42.666s-9.771-42.666-42.666-42.666h-341.334c-32.704 0-42.666 12.459-42.666 42.666s0 42.666 0 42.666h-42.666c0 0 0-30.336 0-64s32.17-64 64-64h384c31.125 0 64 32.149 64 64 0 31.829 0 64 0 64h-42.666zM213.333 96c0 0 19.285-21.334 42.219-21.334s43.114 21.334 43.114 21.334 51.69 51.798 53.781 53.888c2.091 2.112 12.565 17.322-1.216 30.72-12.95 12.651-29.483 2.474-31.232 0.726s-42.666-42.666-42.666-42.666v277.334c0 0-0.726 21.334-21.674 21.334-20.821 0-20.992-21.334-20.992-21.334v-277.334c0 0-41.109 41.109-42.666 42.666s-18.858 13.163-31.254-0.704c-11.989-13.418-1.472-30.442 0-31.914 1.472-1.472 52.587-52.714 52.587-52.714z" />
<glyph unicode="&#xe658;" d="M256 480c-141.376 0-256-114.624-256-256 0-141.398 114.624-256 256-256 141.376 0 256 114.603 256 256 0 141.376-114.624 256-256 256zM131.69 397.12l64.746-112.149c-5.525-5.398-9.984-11.733-13.888-18.432l-125.76 33.707c15.061 39.147 41.344 72.726 74.902 96.875zM42.666 224c0 11.968 1.322 23.552 3.221 34.966l124.928-33.472c0-0.512-0.149-0.982-0.149-1.493 0-47.125 38.208-85.334 85.333-85.334 8 0 15.744 1.13 23.062 3.2l64.746-112.128c-26.774-12.16-56.448-19.072-87.808-19.072-117.824 0-213.333 95.531-213.333 213.334zM281.046 189.611c-1.301-0.448-2.582-0.81-3.968-1.6-1.514-0.875-2.603-1.899-3.733-2.923-5.312-2.389-11.158-3.755-17.344-3.755-23.552 0-42.666 19.115-42.666 42.666 0 2.901 0.298 5.718 0.853 8.448 0.448 1.046 1.002 1.92 1.322 3.157 0.192 0.746 0.128 1.365 0.256 2.090 5.738 16.81 21.482 28.97 40.234 28.97 23.552 0 42.666-19.114 42.666-42.666 0-14.166-6.976-26.646-17.622-34.389zM380.714 51.136l-64.939 112.469c5.44 5.462 10.219 11.584 14.058 18.325l125.44-33.6c-14.912-39.253-41.109-72.939-74.56-97.195zM341.248 223.082c0 0.32 0.086 0.598 0.086 0.918 0 47.125-38.208 85.334-85.334 85.334-7.808 0-15.232-1.387-22.422-3.349l-64.96 112.49c26.688 12.010 56.214 18.858 87.382 18.858 117.824 0 213.333-95.531 213.333-213.334 0-11.755-1.216-23.19-3.029-34.411l-125.056 33.493z" />
<glyph unicode="&#xe659;" d="M256 373.334v21.334c-94.25 0-170.667-76.416-170.667-170.667h21.334c0 82.475 66.859 149.333 149.334 149.333zM136.022 102.678c0.042-0.043 0.064-0.064 0.107-0.106-1.856 1.834-3.563 3.818-5.333 5.738 1.75-1.877 3.35-3.755 5.226-5.632zM256 117.334c58.923 0 106.666 47.744 106.666 106.666h-21.334c0-47.125-38.208-85.334-85.334-85.334v-21.334zM405.334 224c0-82.475-66.858-149.333-149.334-149.333v-21.334c94.25 0 170.667 76.416 170.667 170.666h-21.334zM256 330.667c-58.923 0-106.666-47.744-106.666-106.667h21.334c0 47.125 38.208 85.334 85.334 85.334v21.334zM256 480c-141.376 0-256-114.624-256-256 0-141.398 114.624-256 256-256 141.376 0 256 114.603 256 256 0 141.376-114.624 256-256 256zM256 10.666c-117.824 0-213.333 95.531-213.333 213.334s95.51 213.333 213.333 213.333c117.824 0 213.333-95.53 213.333-213.333s-95.51-213.333-213.333-213.333zM298.666 224c0 23.552-19.115 42.666-42.666 42.666s-42.666-19.114-42.666-42.666 19.114-42.666 42.666-42.666 42.666 19.115 42.666 42.666z" />
<glyph unicode="&#xe65a;" d="M491.029 347.733c-25.579 36.224-49.173 61.632-64 81.067-16.704 21.845-29.248 25.6-42.666 25.6h-256c-13.718 0-26.88-0.192-42.666-21.333s-37.696-49.046-64-85.334c-16.405-22.635-14.698-18.262 0-42.666 10.048-16.64 185.792-288.747 192-298.666 4.458-7.125 23.381-38.4 42.666-38.4 18.389 0 36.31 29.483 42.666 38.4 7.765 10.837 182.123 283.243 192 298.666 13.418 20.906 15.808 20.267 0 42.666zM405.696 390.4c4.693-6.442 18.091-26.666 28.651-42.666h-71.317l-48 64h48c27.606 0 23.253 5.397 42.666-21.334zM256.043 411.733h0.298l-0.149-0.192 48.086-63.808h-95.936l47.85 63.808-0.149 0.192zM107.008 390.4c19.925 25.088 16.128 21.334 42.666 21.334h48l-48-64h-72.256c8.278 13.077 19.285 29.675 29.59 42.666zM77.846 305.067h76.395l39.104-182.55-115.499 182.55zM256.853 24.704l-0.81-1.238-0.534 0.853-58.709 280.747h118.954l-58.901-280.363zM319.382 123.178l39.062 181.888h76.373l-115.435-181.888z" />
<glyph unicode="&#xe65b;" d="M256 480c-117.824 0-213.333-49.984-213.333-85.334v-341.334c0-35.349 95.51-85.333 213.333-85.333s213.333 49.984 213.333 85.334v341.334c0 35.349-95.51 85.334-213.333 85.334zM256 437.334c94.25 0 170.667-28.672 170.667-42.666 0-13.334-76.416-42.667-170.667-42.667s-170.667 28.438-170.667 42.667c0 14.677 76.416 42.666 170.667 42.666zM256 10.666c-94.25 0-170.667 28.075-170.667 42.666v124.65c38.912-21.696 100.757-39.317 170.667-39.317s131.755 17.622 170.667 39.317v-124.65c0-15.317-76.416-42.666-170.667-42.666zM256 181.334c-94.25 0-170.667 28.075-170.667 42.666v124.65c38.912-21.696 100.757-39.317 170.667-39.317s131.755 17.622 170.667 39.317v-124.65c0-15.317-76.416-42.666-170.667-42.666z" />
<glyph unicode="&#xe65c;" d="M213.333 373.334c18.752 0 21.333 21.334 21.333 21.334v64c0 0-1.92 21.333-21.334 21.333s-21.334-21.333-21.334-21.333v-64c0 0 2.582-21.334 21.334-21.334zM128 373.334c18.752 0 21.334 21.334 21.334 21.334v42.666c0 0-1.92 21.334-21.334 21.334s-21.334-21.334-21.334-21.334v-42.666c0 0 2.582-21.334 21.334-21.334zM405.334 245.333h-21.334v42.667c0 20.053-20.565 42.666-42.666 42.666h-256c-20.16 0-42.666-21.462-42.666-42.666v-256c0-28.885 32.768-64 64-64h213.333c32.704 0 64 32.192 64 64v21.334h21.334c33.622 0 64 31.424 64 64s0 31.317 0 64-32.747 64-64 64zM341.334 53.334c0-31.786-11.392-42.666-42.666-42.666h-170.667c-32.214 0-42.666 12.971-42.666 42.666v213.334c0 17.962 3.627 21.333 21.334 21.333h213.333c17.28 0 21.334-5.226 21.334-21.334v-213.334zM426.666 138.666c0-31.232-12.31-42.666-42.666-42.666v106.666c25.514 0 42.666-10.816 42.666-42.666v-21.334zM298.666 373.334c18.752 0 21.334 21.334 21.334 21.334v42.666c0 0-1.92 21.334-21.334 21.334s-21.334-21.334-21.334-21.334v-42.666c0 0 2.582-21.334 21.334-21.334z" />
<glyph unicode="&#xe65d;" d="M496.64 393.558c-0.406 0.341-0.875 0.597-1.322 0.896-2.646 1.792-4.651 2.538-4.651 2.538-9.088 2.752-199.723 40.085-213.334 42.666-9.216 1.75-33.216 1.195-42.666 0-22.464-2.837-195.456-37.398-213.333-42.666 0 0-21.334-6.55-21.334-42.666v-277.334c0-36.010 21.334-42.666 21.334-42.666 17.088-6.208 201.173-60.971 213.333-64 10.432-2.603 31.424-3.541 42.666 0 13.334 4.181 202.56 59.627 213.333 64 0 0 21.333 6.656 21.333 42.666v277.334c0 23.594-9.046 34.474-15.36 39.232zM234.667 9.301c-46.016 11.947-147.819 45.696-192 60.502v277.696c52.886-16.363 181.867-54.656 192-57.173v-281.024zM256 324.992c-20.011 0-192 50.667-192 50.667s170.453 34.666 192 34.666c20.587 0 192-34.666 192-34.666s-169.621-50.667-192-50.667zM277.334 290.326c10.944 3.434 139.84 41.429 192 57.301v-277.909c-44.096-14.954-145.622-48.938-192-60.651v281.259z" />
<glyph unicode="&#xe65e;" d="M490.666 96c0 0-26.176 0-64 0v256c0 4.224-0.341 8.043-0.832 11.648l75.178 75.2c0 0 14.080 16.085 0 30.186-14.080 14.080-30.166 0-30.166 0l-75.158-75.178c-3.563 0.512-7.402 0.81-11.69 0.81h-256c0 37.824 0 64 0 64s-3.648 21.334-21.334 21.334-21.334-21.334-21.334-21.334 0-25.962 0-64c-38.038 0-64 0-64 0s-21.334-1.322-21.334-21.334 21.334-21.333 21.334-21.333 26.176 0 64 0v-256c0-28.416 10.794-42.666 42.666-42.666h256c0-37.824 0-64 0-64s3.648-21.334 21.334-21.334 21.334 21.334 21.334 21.334 0 25.962 0 64c38.038 0 64 0 64 0s21.334 1.322 21.334 21.334-21.334 21.334-21.334 21.334zM353.834 352l-225.834-225.834v225.834h225.834zM158.166 96l225.834 225.813v-225.813h-225.834z" />
<glyph unicode="&#xe65f;" d="M129.77 266.667v42.666h-42.666v-42.666h42.666zM65.77 202.666h85.333c0 0 21.334 1.195 21.334 21.334s-21.334 21.334-21.334 21.334h-85.334c0 0-21.334-0.661-21.334-21.334s21.334-21.334 21.334-21.334zM65.77 330.667h85.333c0 0 21.334 1.194 21.334 21.333s-21.334 21.334-21.334 21.334h-85.334c0 0-21.334-0.661-21.334-21.334s21.334-21.333 21.334-21.333zM129.77 138.666v42.666h-42.666v-42.666h42.666zM172.438 96c0 20.139-21.334 21.334-21.334 21.334h-85.334c0 0-21.334-0.661-21.334-21.334s21.334-21.334 21.334-21.334h85.334c0 0 21.334 1.195 21.334 21.334zM407.125 480h-256c-31.254 0-64-32.214-64-64v-21.334h42.666c0 31.36 10.538 42.666 42.666 42.666h149.333v-426.666h-149.333c-32.171 0-42.667 10.325-42.667 42.666h-42.666v-21.334c0-30.55 31.85-64 64-64h256c31.744 0 64 32.918 64 64v384c0 31.894-32.918 64-64 64zM428.459 53.334c0-32.448-11.456-42.666-42.666-42.666h-21.334v426.666h21.334c31.296 0 42.666-11.243 42.666-42.666v-341.334z" />
<glyph unicode="&#xe660;" d="M394.774 340.139c-15.659-5.995-234.667-85.334-234.667-85.334s-78.102-212.97-85.334-234.666c-18.090-54.208-7.275-61.739 42.666-42.666 15.829 6.038 234.666 85.334 234.666 85.334l-157.867 157.866 200.534 76.8-76.8-200.534 34.133-34.133c0 0 78.187 213.163 85.334 234.667 17.877 53.76 6.678 61.589-42.666 42.666z" />
<glyph unicode="&#xe661;" d="M256 266.731c-17.664 0-32-14.336-32-32s14.336-32 32-32 32 14.336 32 32-14.336 32-32 32zM437.334 394.731h-362.666c-32.086 0-64-33.578-64-64v-213.333c0-31.744 32.981-64 64-64 31.040 0 64 0 64 0s0-24 0-42.666c0-11.328 12.63-42.666 42.666-42.666 23.659-1.578 47.786 26.454 64 42.666s42.666 42.666 42.666 42.666 118.464 0 149.333 0 64 32.278 64 64v213.333c0 30.379-31.296 64-64 64zM458.666 138.731c0-31.339-9.792-42.666-42.666-42.666-29.418 0-116.587-0.171-140.202-0.171-13.632 0-19.648-8.704-24.341-13.397-4.672-4.694-39.552-41.195-61.334-62.976-6.549-6.848-9.216-0.747-9.216 0.875s0.427 54.336 0.427 54.336-1.877 21.334-21.333 21.334h-64c-30.954 0-42.666 10.901-42.666 42.666v170.666c0 30.742 11.328 42.667 42.666 42.667h320c31.552 0 42.666-11.947 42.666-42.667v-170.666zM149.333 266.731c-17.664 0-32-14.336-32-32s14.336-32 32-32 32 14.336 32 32-14.336 32-32 32zM362.666 266.731c-17.664 0-32-14.336-32-32s14.336-32 32-32 32 14.336 32 32-14.336 32-32 32z" />
<glyph unicode="&#xe662;" d="M448 394.731h-384c-32.086 0-64-33.578-64-64v-213.333c0-31.744 32.981-64 64-64 31.040 0 64 0 64 0s0-24 0-42.666c0-11.328 12.63-42.666 42.666-42.666 23.659-1.578 47.786 26.454 64 42.666s42.666 42.666 42.666 42.666 139.798 0 170.667 0 64 32.278 64 64v213.333c0 30.379-31.296 64-64 64zM469.334 138.731c0-31.339-9.792-42.666-42.666-42.666-29.418 0-137.92-0.171-161.536-0.171-13.632 0-19.648-8.704-24.341-13.397-4.672-4.694-39.552-41.195-61.334-62.976-6.549-6.848-9.216-0.747-9.216 0.875s0.427 54.336 0.427 54.336-1.877 21.334-21.333 21.334h-64c-30.954 0-42.666 10.901-42.666 42.666v170.666c0 30.742 11.328 42.667 42.666 42.667h341.334c31.552 0 42.666-11.947 42.666-42.667v-170.666zM320 245.398h-42.666v42.667c0 0-1.173 21.334-21.334 21.334s-21.334-21.334-21.334-21.334v-42.666h-42.666c0 0-21.334-0.298-21.334-21.334s21.334-21.334 21.334-21.334h42.666v-42.666c0 0 0.726-21.334 21.334-21.334s21.334 21.334 21.334 21.334v42.666h42.666c0 0 21.334 2.048 21.334 21.334 0 19.264-21.334 21.334-21.334 21.334z" />
<glyph unicode="&#xe663;" d="M384 202.731h-256c0 0-21.334 0.064-21.334-21.334s21.334-21.334 21.334-21.334h256c0 0 21.334-0.171 21.334 21.334s-21.334 21.334-21.334 21.334zM448 394.731h-384c-32.086 0-64-33.578-64-64v-213.333c0-31.744 32.981-64 64-64 31.040 0 64 0 64 0s0-24 0-42.666c0-11.328 12.63-42.666 42.666-42.666 23.659-1.578 47.786 26.454 64 42.666s42.666 42.666 42.666 42.666 139.798 0 170.667 0 64 32.278 64 64v213.333c0 30.379-31.296 64-64 64zM469.334 138.731c0-31.339-9.792-42.666-42.666-42.666-29.418 0-137.92-0.171-161.536-0.171-13.632 0-19.648-8.704-24.341-13.397-4.672-4.694-39.552-41.195-61.334-62.976-6.549-6.848-9.216-0.747-9.216 0.875s0.427 54.336 0.427 54.336-1.877 21.334-21.333 21.334h-64c-30.954 0-42.666 10.901-42.666 42.666v170.666c0 30.742 11.328 42.667 42.666 42.667h341.334c31.552 0 42.666-11.947 42.666-42.667v-170.666zM384 288.064h-256c0 0-21.334 0.064-21.334-21.333s21.334-21.334 21.334-21.334h256c0 0 21.334-0.171 21.334 21.334s-21.334 21.334-21.334 21.334z" />
<glyph unicode="&#xe664;" d="M448 394.731h-384c-32.086 0-64-33.578-64-64v-213.333c0-31.744 32.981-64 64-64s64 0 64 0 0-24 0-42.666c0-11.328 12.63-42.666 42.666-42.666 23.659-1.578 47.786 26.454 64 42.666s42.666 42.666 42.666 42.666 139.818 0 170.667 0 64 32.278 64 64v213.333c0 30.379-31.274 64-64 64zM469.334 138.731c0-31.339-9.792-42.666-42.666-42.666-29.418 0-137.92-0.171-161.536-0.171-13.632 0-19.648-8.704-24.341-13.397-4.672-4.694-39.531-41.195-61.334-62.976-6.549-6.848-9.195-0.747-9.195 0.875s0.405 54.336 0.405 54.336-1.877 21.334-21.333 21.334h-64c-30.976 0-42.666 10.901-42.666 42.666v170.666c0 30.742 11.328 42.667 42.666 42.667h341.334c31.552 0 42.666-11.947 42.666-42.667v-170.666zM286.166 224.064l30.166 30.166c0 0 13.654 16.534 0 30.165-13.632 13.632-30.166 0-30.166 0l-30.166-30.165-30.166 30.165c0 0-15.915 14.25-30.166 0-14.272-14.25 0-30.165 0-30.165l30.166-30.166-30.166-30.165c0 0-14.869-15.296 0-30.166s30.166 0 30.166 0l30.166 30.166 30.166-30.166c0 0 15.594-14.592 30.166 0 14.592 14.57 0 30.166 0 30.166l-30.166 30.166z" />
<glyph unicode="&#xe665;" d="M426.666 138.666h-42.666v170.688c18.517-0.022 33.472-0.022 42.666-0.022 52.48 0 85.334 32.96 85.334 85.334 0 52.267-32.576 85.334-85.334 85.334-53.248 0-85.334-52.886-85.334-85.334v-42.666h-170.667v42.666c0 53.397-32.022 85.334-85.334 85.334-52.523 0-85.334-31.958-85.334-85.334 0-52.096 30.997-85.995 85.334-85.334 6.72 0.086 22.038 0.128 42.666 0.149v-170.816h-42.666c-53.291 0-85.334-33.75-85.334-85.334 0-52.885 31.445-85.334 85.334-85.334 52.758 0 85.334 34.666 85.334 85.334v42.666h170.667v-42.666c0-51.819 32.426-85.334 85.334-85.334 52.053 0 85.334 32.704 85.334 85.334 0 52.416-33.28 85.334-85.334 85.334zM384 394.666c0 21.654 20.010 42.666 42.666 42.666s42.666-21.29 42.666-42.666-17.13-42.666-42.666-42.666-42.666 0-42.666 0 0 20.992 0 42.666zM128 53.334c0-21.675-20.011-42.666-42.666-42.666s-42.666 21.291-42.666 42.666 17.13 42.666 42.666 42.666 42.666 0 42.666 0 0-20.992 0-42.666zM128 352c0 0-17.13 0-42.666 0s-42.666 21.291-42.666 42.666 20.011 42.666 42.666 42.666 42.666-21.013 42.666-42.666c0-21.674 0-42.666 0-42.666zM341.334 138.666h-170.667v170.666h170.667v-170.666zM426.666 10.666c-22.656 0-42.666 20.992-42.666 42.666s0 42.666 0 42.666 17.13 0 42.666 0 42.666-21.291 42.666-42.666-20.010-42.666-42.666-42.666z" />
<glyph unicode="&#xe666;" d="M426.666 160c0 77.334-52.394 149.333-149.334 149.333-124.245 0-149.333-106.666-149.333-106.666-10.56 3.925-128-2.368-128-128 0-89.301 89.536-106.666 106.666-106.666h341.334c23.125 0 64 32.576 64 85.334 0 100.843-85.334 106.666-85.334 106.666zM426.666 10.666c0 0-279.914 0-298.666 0s-84.843 8-85.334 64c-0.789 87.19 67.563 85.334 106.666 85.334 20.416 1.173 19.669 12.672 21.333 21.334s14.272 85.334 106.666 85.334c115.094 0 106.176-109.077 106.666-128s14.442-21.334 21.334-21.334 64 0.426 64-64c0-41.856-42.666-42.666-42.666-42.666z" />
<glyph unicode="&#xe667;" d="M426.666 288c0 77.334-52.394 149.333-149.334 149.333-124.245 0-149.333-106.666-149.333-106.666-10.56 3.925-128-2.368-128-128 0-89.301 89.536-106.666 106.666-106.666h64c0 0 21.334 1.301 21.334 21.334 0 19.584-21.334 21.334-21.334 21.334h-42.666c-18.752 0-84.843 8-85.334 64-0.789 87.168 67.563 85.334 106.666 85.334 20.416 1.173 19.669 12.672 21.334 21.334s14.272 85.334 106.666 85.334c115.094 0 106.176-109.078 106.666-128s14.442-21.334 21.334-21.334 64 0.427 64-64c0-41.856-42.666-42.666-42.666-42.666s-37.205 0-85.334 0c0 0-21.334-1.322-21.334-21.334 0-19.968 21.334-21.334 21.334-21.334h106.666c23.125 0 64 32.576 64 85.334 0 100.842-85.334 106.666-85.334 106.666zM349.334 181.824c13.334 13.504 2.070 28.694-0.875 31.659-2.923 2.966-42.048 45.354-49.792 53.184-7.082 7.168-18.944 21.333-42.666 21.333-22.742 0-50.048-28.8-42.666-21.334s-51.157-49.728-54.592-53.163c-4.97-5.056-9.408-20.373 0.875-30.805 10.987-11.115 28.459-5.354 32.384-1.365 2.582 2.603 42.666 42.666 42.666 42.666v-234.666c0 0 1.834-21.333 21.334-21.333s21.334 21.334 21.334 21.334v234.666c0 0 36.373-39.19 39.829-42.666 3.435-3.478 18.709-13.12 32.171 0.49z" />
<glyph unicode="&#xe668;" d="M426.666 309.333c0 77.334-52.394 149.334-149.334 149.334-124.245 0-149.333-106.666-149.333-106.666-10.56 3.925-128-2.368-128-128 0-89.302 89.536-106.666 106.666-106.666h64c0 0 21.334 1.301 21.334 21.334 0 19.584-21.334 21.334-21.334 21.334h-42.666c-18.752 0-84.843 8-85.334 64-0.789 87.168 67.563 85.334 106.666 85.334 20.416 1.173 19.669 12.672 21.334 21.334s14.272 85.334 106.666 85.334c115.094 0 106.176-109.077 106.666-128s14.442-21.334 21.334-21.334 64 0.426 64-64c0-41.856-42.666-42.666-42.666-42.666s-37.205 0-85.334 0c0 0-21.334-1.322-21.334-21.334 0-19.968 21.334-21.334 21.334-21.334h106.666c23.125 0 64 32.576 64 85.334 0 100.843-85.334 106.666-85.334 106.666zM212.181-9.536c1.728-1.707 2.368-2.346 1.152-1.13-0.853 0.853-1.131 1.13-1.152 1.13zM320 74.666c-3.478-3.478-42.666-42.666-42.666-42.666v234.667c0 0-1.622 21.333-21.334 21.333s-21.334-21.334-21.334-21.334v-234.666c0 0-40.064 40.043-42.666 42.666-3.968 3.968-20.16 9.75-31.296-1.365-10.368-10.411-5.888-25.75-0.875-30.784 2.88-2.88 43.221-43.008 52.267-51.968 0.597-0.598 23.808-22.549 43.904-22.549 24 0 35.498 14.166 42.666 21.334 7.829 7.829 50.048 50.219 52.992 53.163 2.966 2.986 14.336 18.176 0.875 31.659-13.611 13.632-29.056 3.99-32.534 0.512z" />
<glyph unicode="&#xe669;" d="M256 480c-141.376 0-256-114.624-256-256s114.624-256 256-256c141.398 0 256 114.624 256 256s-114.603 256-256 256zM256 10.666c-117.803 0-213.333 95.51-213.333 213.334s95.53 213.333 213.333 213.333 213.333-95.51 213.333-213.333-95.531-213.333-213.333-213.333zM341.334 245.333h-64v106.667c0 0-1.11 21.334-21.334 21.334-20.202 0-21.334-21.334-21.334-21.334s0-115.541 0-128 11.84-21.334 21.334-21.334 85.334 0 85.334 0 21.334 1.707 21.334 21.334-21.334 21.334-21.334 21.334z" />
<glyph unicode="&#xe66a;" d="M361.771 117.334h-106.666c0 0-21.334-2.688-21.334-21.334 0-18.666 21.334-21.334 21.334-21.334h106.666c0 0 21.334 2.325 21.334 21.334s-21.334 21.334-21.334 21.334zM169.77 202.666h-21.333c0 0-21.334-2.688-21.334-21.334 0-18.666 21.334-21.334 21.334-21.334h21.334c0 0 21.334 2.325 21.334 21.334s-21.334 21.334-21.334 21.334zM169.77 288h-21.333c0 0-21.334-2.688-21.334-21.334 0-18.666 21.334-21.334 21.334-21.334h21.334c0 0 21.334 2.326 21.334 21.334s-21.334 21.334-21.334 21.334zM404.438 437.334h-35.947c-3.37 11.136-6.166 19.648-6.72 21.334-1.579 4.778-5.909 21.333-21.334 21.333h-170.667c-15.637 0-20.096-17.558-21.333-21.333-0.427-1.344-3.264-9.942-6.698-21.334h-35.968c-31.957 0-64-31.488-64-64v-341.334c0-32.341 32.533-64 64-64h298.666c31.445 0 64 32.086 64 64v341.334c0 31.978-32.704 64-64 64zM178.24 401.92c0 0 6.635 25.301 7.488 29.291 0.875 3.989 1.664 6.016 8.256 6.016 8.085 0 114.176-0.085 122.24 0 7.466 0.086 7.51-2.026 9.088-5.696 1.6-3.67 7.424-29.611 7.424-29.611s2.774-7.51-5.248-7.51h-144.768c-7.958 0-4.48 7.51-4.48 7.51zM425.771 53.334c0-32.64-10.795-42.666-42.666-42.666h-256c-32.064 0-42.666 10.411-42.666 42.666v298.666c0 30.464 10.026 42.666 42.666 42.666h3.114c-1.856-8.576-3.115-16.171-3.115-21.334 0-20.821 12.8-21.333 21.334-21.333h213.333c6.635 0 21.334 0.746 21.334 21.334 0 5.142-1.238 12.757-3.115 21.334h3.115c32.128 0 42.666-11.35 42.666-42.667v-298.666zM361.771 202.666h-106.666c0 0-21.334-2.688-21.334-21.334 0-18.666 21.334-21.334 21.334-21.334h106.666c0 0 21.334 2.325 21.334 21.334s-21.334 21.334-21.334 21.334zM361.771 288h-106.666c0 0-21.334-2.688-21.334-21.334 0-18.666 21.334-21.334 21.334-21.334h106.666c0 0 21.334 2.326 21.334 21.334s-21.334 21.334-21.334 21.334zM169.77 117.334h-21.333c0 0-21.334-2.688-21.334-21.334 0-18.666 21.334-21.334 21.334-21.334h21.334c0 0 21.334 2.325 21.334 21.334s-21.334 21.334-21.334 21.334z" />
</font>
</defs>
</svg>
